<svg width="372" height="395" viewBox="0 0 372 395" fill="none" xmlns="http://www.w3.org/2000/svg">
<path d="M27.92 326.16C28.048 323.685 28.496 321.253 29.264 318.864C30.032 316.475 31.12 314.341 32.528 312.464C33.936 310.587 35.664 309.051 37.712 307.856C39.8027 306.619 42.192 305.915 44.88 305.744C44.9227 305.701 45.2427 305.68 45.84 305.68H46.864C49.168 305.68 51.152 305.893 52.816 306.32C54.48 306.747 55.6533 307.195 56.336 307.664C56.7627 307.92 57.1253 308.048 57.424 308.048C58.0213 308.048 58.32 307.557 58.32 306.576L58.256 305.936H60.24L63.184 316.752H61.328C60.2613 315.216 59.2587 313.936 58.32 312.912C57.3813 311.888 56.3787 311.056 55.312 310.416C54.288 309.776 53.1573 309.328 51.92 309.072C50.6827 308.773 49.232 308.624 47.568 308.624C45.4347 308.624 43.5787 309.115 42 310.096C40.464 311.077 39.184 312.379 38.16 314C37.136 315.579 36.3467 317.413 35.792 319.504C35.28 321.552 34.96 323.685 34.832 325.904V326.992C34.832 327.547 34.8533 327.845 34.896 327.888C35.1093 330.149 35.472 332.219 35.984 334.096C36.496 335.931 37.2213 337.552 38.16 338.96C39.0987 340.325 40.2507 341.413 41.616 342.224C43.024 343.035 44.7307 343.504 46.736 343.632C50.7467 343.504 53.9467 342.544 56.336 340.752C58.768 338.96 60.496 336.336 61.52 332.88H63.376C62.352 337.403 60.3467 340.837 57.36 343.184C54.416 345.488 50.256 346.64 44.88 346.64C42.32 346.64 39.9947 346.128 37.904 345.104C35.8133 344.037 34.0213 342.608 32.528 340.816C31.0773 339.024 29.9467 336.955 29.136 334.608C28.3253 332.261 27.92 329.765 27.92 327.12V326.16ZM88.9285 332.112V332.368C88.9285 333.435 88.6725 334.651 88.1605 336.016C87.6912 337.339 87.0512 338.619 86.2405 339.856C85.4725 341.051 84.5765 342.075 83.5525 342.928C82.5285 343.739 81.4832 344.144 80.4165 344.144H80.1605C79.1365 344.144 78.2192 343.845 77.4085 343.248C76.6405 342.608 75.9792 341.733 75.4245 340.624C74.8698 339.515 74.4432 338.192 74.1445 336.656C73.8458 335.12 73.6965 333.413 73.6965 331.536C73.9525 327.397 74.6352 324.304 75.7445 322.256C76.8538 320.165 78.3258 319.12 80.1605 319.12C81.6965 319.12 82.9978 319.568 84.0645 320.464C85.1312 321.317 86.0058 322.405 86.6885 323.728C87.3712 325.008 87.8832 326.416 88.2245 327.952C88.5658 329.445 88.8005 330.832 88.9285 332.112ZM101.857 337.68H100.576C100.321 339.259 99.9152 340.432 99.3605 341.2C98.8058 341.968 98.2298 342.352 97.6325 342.352C97.1632 342.352 96.6512 342.117 96.0965 341.648C95.5845 341.136 95.0938 340.539 94.6245 339.856C94.1978 339.173 93.8352 338.448 93.5365 337.68C93.2805 336.912 93.1525 336.272 93.1525 335.76L100.065 317.2H94.4325L90.7845 327.44C90.2298 324.112 89.0565 321.445 87.2645 319.44C85.4725 317.435 83.1045 316.432 80.1605 316.432H79.9045C77.8992 316.432 76.1072 316.901 74.5285 317.84C72.9925 318.736 71.6698 319.931 70.5605 321.424C69.4938 322.875 68.6618 324.539 68.0645 326.416C67.5098 328.293 67.2325 330.192 67.2325 332.112C67.2325 334.117 67.4885 336.016 68.0005 337.808C68.5552 339.557 69.3658 341.093 70.4325 342.416C71.5418 343.739 72.8858 344.784 74.4645 345.552C76.0858 346.32 77.9845 346.704 80.1605 346.704C83.0192 346.704 85.3658 345.979 87.2005 344.528C89.0778 343.035 90.4432 341.179 91.2965 338.96C91.8085 339.941 92.2778 340.901 92.7045 341.84C93.1738 342.736 93.6432 343.547 94.1125 344.272C94.5818 344.997 95.0938 345.573 95.6485 346C96.2032 346.469 96.8432 346.704 97.5685 346.704C99.2752 346.704 100.406 345.872 100.961 344.208C101.558 342.544 101.857 340.368 101.857 337.68ZM125.86 316.56C128.036 316.56 129.849 317.157 131.3 318.352C132.793 319.504 133.54 321.36 133.54 323.92C133.54 325.029 133.455 326.117 133.284 327.184C133.113 328.208 132.836 329.147 132.452 330C132.068 330.811 131.577 331.472 130.98 331.984C130.383 332.496 129.636 332.752 128.74 332.752C127.759 332.752 127.033 332.432 126.564 331.792C126.095 331.109 125.86 330.277 125.86 329.296C125.86 328.656 126.031 328.123 126.372 327.696C126.713 327.269 127.076 326.885 127.46 326.544C127.887 326.203 128.271 325.861 128.612 325.52C128.996 325.136 129.209 324.709 129.252 324.24C129.081 323.771 128.74 323.344 128.228 322.96C127.716 322.576 127.14 322.256 126.5 322C125.86 321.701 125.177 321.488 124.452 321.36C123.727 321.189 123.065 321.104 122.468 321.104C120.036 321.104 118.031 322.469 116.452 325.2V346H111.396V325.712C111.396 323.792 111.14 322.427 110.628 321.616C110.116 320.805 109.455 320.4 108.644 320.4C107.919 320.4 107.257 320.869 106.66 321.808C106.063 322.704 105.743 324.005 105.7 325.712H104.42C104.42 324.304 104.591 323.045 104.932 321.936C105.316 320.827 105.807 319.888 106.404 319.12C107.001 318.352 107.663 317.776 108.388 317.392C109.156 316.965 109.924 316.752 110.692 316.752C111.972 316.752 113.145 317.264 114.212 318.288C115.279 319.269 115.983 320.677 116.324 322.512C117.732 320.464 119.268 318.971 120.932 318.032C122.639 317.051 124.281 316.56 125.86 316.56ZM163.982 329.04C163.896 331.173 163.64 333.243 163.214 335.248C162.787 337.253 162.062 339.067 161.038 340.688C160.056 342.267 158.734 343.547 157.07 344.528C155.448 345.467 153.379 345.936 150.862 345.936H150.67C148.238 345.936 146.19 345.424 144.526 344.4C142.862 343.376 141.518 342.075 140.494 340.496C139.512 338.875 138.787 337.061 138.318 335.056C137.891 333.051 137.678 331.045 137.678 329.04C137.678 327.163 137.912 325.264 138.382 323.344C138.894 321.381 139.662 319.611 140.686 318.032C141.71 316.411 143.011 315.109 144.59 314.128C146.211 313.104 148.152 312.592 150.414 312.592H150.734C152.824 312.592 154.702 313.019 156.366 313.872C158.03 314.683 159.416 315.813 160.526 317.264C161.635 318.715 162.488 320.464 163.086 322.512C163.683 324.517 163.982 326.693 163.982 329.04ZM157.774 327.76C157.731 326.565 157.624 325.221 157.454 323.728C157.283 322.235 156.942 320.848 156.43 319.568C155.96 318.245 155.278 317.136 154.382 316.24C153.486 315.344 152.312 314.896 150.862 314.896C149.368 314.896 148.174 315.344 147.278 316.24C146.382 317.093 145.699 318.181 145.23 319.504C144.76 320.827 144.44 322.235 144.27 323.728C144.099 325.221 143.992 326.565 143.95 327.76H157.774ZM157.774 330.64H143.95C143.992 331.792 144.099 333.115 144.27 334.608C144.44 336.101 144.76 337.531 145.23 338.896C145.742 340.219 146.424 341.349 147.278 342.288C148.174 343.184 149.368 343.632 150.862 343.632C152.312 343.632 153.486 343.184 154.382 342.288C155.278 341.392 155.96 340.283 156.43 338.96C156.942 337.637 157.283 336.229 157.454 334.736C157.624 333.243 157.731 331.877 157.774 330.64ZM198.634 357.52C197.866 356.496 197.375 355.28 197.162 353.872C196.991 352.507 196.906 350.736 196.906 348.56V325.2C196.906 322.512 196.245 320.4 194.922 318.864C193.599 317.328 191.85 316.56 189.674 316.56C188.095 316.56 186.474 317.051 184.81 318.032C183.146 318.971 181.61 320.464 180.202 322.512C179.861 320.677 179.157 319.269 178.09 318.288C177.023 317.264 175.85 316.752 174.57 316.752C173.802 316.752 173.034 316.965 172.266 317.392C171.498 317.776 170.815 318.352 170.218 319.12C169.621 319.888 169.13 320.827 168.746 321.936C168.362 323.045 168.17 324.304 168.17 325.712H169.45C169.493 324.005 169.813 322.704 170.41 321.808C171.007 320.869 171.669 320.4 172.394 320.4C173.205 320.4 173.887 320.805 174.442 321.616C174.997 322.427 175.274 323.792 175.274 325.712V346H180.33V325.2C181.909 322.469 183.893 321.104 186.282 321.104C187.007 321.104 187.711 321.211 188.394 321.424C189.077 321.595 189.674 321.872 190.186 322.256C190.741 322.597 191.167 323.024 191.466 323.536C191.807 324.005 191.978 324.56 191.978 325.2V348.56C191.978 350.523 192.042 352.229 192.17 353.68C192.341 355.131 192.853 356.411 193.706 357.52H198.634ZM211.735 322.384L211.543 324.432C211.329 326.736 211.137 328.827 210.967 330.704C210.839 332.581 210.775 334.224 210.775 335.632C210.775 339.387 211.265 342.245 212.247 344.208C213.228 346.128 214.764 347.088 216.855 347.088C217.879 347.088 218.796 346.853 219.607 346.384C220.46 345.957 221.185 345.36 221.783 344.592C222.423 343.824 222.913 342.928 223.255 341.904C223.596 340.88 223.767 339.792 223.767 338.64C223.767 338.341 223.745 338.021 223.703 337.68C223.66 337.296 223.639 337.019 223.639 336.848H222.359C222.231 338.213 221.825 339.344 221.143 340.24C220.46 341.093 219.692 341.52 218.839 341.52C218.071 341.52 217.431 341.243 216.919 340.688C216.449 340.133 216.065 339.408 215.767 338.512C215.468 337.573 215.255 336.528 215.127 335.376C215.041 334.181 214.999 332.965 214.999 331.728C214.999 329.808 215.084 327.973 215.255 326.224C215.425 324.475 215.596 323.195 215.767 322.384H225.111V316.56H210.711C209.26 316.56 207.959 316.944 206.807 317.712C205.697 318.437 204.737 319.355 203.927 320.464C203.116 321.573 202.455 322.811 201.943 324.176C201.473 325.541 201.153 326.821 200.983 328.016H202.391C203.372 325.925 204.289 324.475 205.143 323.664C205.996 322.811 207.084 322.384 208.407 322.384H211.735ZM254.129 339.408H252.017C251.377 340.389 250.779 341.179 250.225 341.776C249.67 342.331 249.094 342.779 248.497 343.12C247.942 343.419 247.302 343.632 246.577 343.76C245.894 343.845 245.083 343.909 244.145 343.952C241.329 343.781 239.281 343.141 238.001 342.032C236.721 340.88 236.081 339.451 236.081 337.744C236.081 337.061 236.23 336.4 236.529 335.76C236.87 335.077 237.318 334.501 237.873 334.032C238.427 333.563 239.067 333.179 239.793 332.88C240.518 332.581 241.265 332.432 242.033 332.432C242.63 332.432 243.419 332.496 244.401 332.624L246.193 332.752C247.729 332.752 248.497 332.24 248.497 331.216V331.088C248.411 330.491 248.155 330.085 247.729 329.872C247.345 329.659 246.833 329.552 246.193 329.552L242.545 329.744C241.521 329.701 240.582 329.595 239.729 329.424C238.918 329.253 238.214 328.976 237.617 328.592C237.062 328.208 236.635 327.675 236.337 326.992C236.038 326.309 235.889 325.413 235.889 324.304C235.889 323.408 236.038 322.64 236.337 322C236.635 321.317 237.019 320.763 237.489 320.336C237.958 319.867 238.47 319.525 239.025 319.312C239.622 319.056 240.219 318.928 240.817 318.928C242.139 318.928 243.121 319.184 243.76 319.696C244.443 320.165 245.062 320.912 245.617 321.936C246.214 322.917 246.726 323.621 247.153 324.048C247.622 324.475 248.326 324.688 249.265 324.688C249.947 324.688 250.609 324.432 251.249 323.92C251.889 323.408 252.209 322.832 252.209 322.192C252.209 321.424 251.889 320.699 251.249 320.016C250.651 319.291 249.841 318.672 248.817 318.16C247.835 317.648 246.726 317.243 245.489 316.944C244.251 316.645 243.035 316.496 241.841 316.496C240.347 316.496 238.897 316.667 237.489 317.008C236.081 317.307 234.822 317.797 233.713 318.48C232.603 319.163 231.707 320.016 231.025 321.04C230.342 322.064 230.001 323.28 230.001 324.688C230.001 326.139 230.513 327.419 231.536 328.528C232.561 329.595 233.734 330.405 235.057 330.96C232.881 331.941 231.366 333.072 230.513 334.352C229.659 335.589 229.233 336.997 229.233 338.576C229.233 340.155 229.574 341.477 230.257 342.544C230.982 343.611 231.921 344.464 233.073 345.104C234.225 345.744 235.547 346.192 237.041 346.448C238.577 346.747 240.177 346.896 241.841 346.896C243.505 346.896 244.977 346.832 246.257 346.704C247.537 346.576 248.667 346.256 249.649 345.744C250.673 345.232 251.547 344.485 252.273 343.504C252.998 342.523 253.617 341.157 254.129 339.408Z" fill="#193040"/>
<path d="M135.47 255.573C207.559 255.573 266.103 198.865 266.103 128.786C266.103 58.7074 207.559 2 135.47 2C63.3814 2 4.83762 58.7074 4.83762 128.786C4.83762 198.865 63.3814 255.573 135.47 255.573Z" stroke="#193040" stroke-width="4"/>
<path fill-rule="evenodd" clip-rule="evenodd" d="M136.296 14.3858C135.363 15.1606 135.083 15.7818 135.048 17.1491C135.002 18.8944 134.796 19.1122 115.222 38.0627L95.4416 57.2133V89.0077C95.4416 106.495 95.2884 120.803 95.1007 120.803C94.9134 120.803 93.5351 119.608 92.0377 118.148L89.3155 115.494V98.9505V82.408L84.9396 78.1312L80.5638 73.8548V57.9191V41.9838L88.4827 34.2896C96.3833 26.6135 96.4069 26.5954 98.611 26.3907C100.268 26.2368 101.02 25.9335 101.622 25.1778C103.552 22.7521 101.869 19.2221 98.7834 19.2221C96.4314 19.2221 95.004 20.6012 95.004 22.8734C95.004 24.5545 94.773 24.8243 86.4712 32.8395L77.9383 41.078V57.9534V74.8292L82.3141 79.1267L86.69 83.4242V99.9004V116.377L91.5064 121.017C95.6017 124.963 96.4375 125.588 97.0856 125.193C97.7988 124.758 97.8557 122.564 97.9603 91.5054L98.0723 58.2824L117.539 39.5543C136.745 21.0761 137.03 20.8253 138.819 20.7818C142.402 20.6951 143.939 17.0556 141.421 14.6222C139.827 13.0816 137.968 12.9958 136.296 14.3858ZM118.108 15.5201C117.005 16.5866 116.816 17.0488 117.009 18.2029C117.237 19.5579 116.811 20.0151 101.967 34.3569L86.69 49.1165V55.7471V62.3773L85.3772 63.646C83.623 65.3419 83.6111 67.1442 85.3435 68.8185C86.9433 70.3646 88.7965 70.4454 90.4847 69.0422C92.2131 67.6052 92.2254 64.8644 90.5087 63.542L89.3155 62.6222V56.4132V50.2042L104.17 35.9089C118.78 21.8479 119.053 21.6136 120.796 21.6136C122.967 21.6136 124.244 20.5204 124.609 18.3497C124.831 17.023 124.682 16.6293 123.534 15.5201C122.612 14.629 121.776 14.2319 120.821 14.2319C119.867 14.2319 119.03 14.629 118.108 15.5201ZM151.651 16.1159C150.878 16.8623 150.577 17.6159 150.577 18.8013C150.577 20.4126 150.068 20.9412 127.166 43.1159L103.756 65.7834V132.097V198.411L91.8285 209.932C80.2378 221.128 79.8523 221.453 78.1541 221.466C75.6747 221.485 74.0001 223.016 74.0001 225.263C74.0001 226.711 76.3062 228.645 78.014 228.628C80.4111 228.606 82.1785 226.613 81.7287 224.438C81.5151 223.406 82.6673 222.164 93.9368 211.277L106.381 199.256V133.068V66.8799L129.465 44.5733C151.612 23.1724 152.615 22.267 154.164 22.267C156.517 22.267 158.103 20.8198 158.103 18.6723C158.103 15.4376 154.025 13.8217 151.651 16.1159ZM166.549 18.5264C165.106 19.2885 164.58 20.2206 164.569 22.0306C164.559 23.7235 164.318 23.9806 147.066 40.6445L129.573 57.5423V74.0578V90.5733L121.04 98.8118C116.347 103.343 112.507 107.348 112.507 107.713C112.507 108.078 114.647 110.414 117.263 112.905L122.02 117.435L139.471 117.413L156.922 117.391L187.865 87.5052C218.672 57.7495 218.815 57.6184 220.633 57.5745C224.229 57.4873 225.772 53.8529 223.249 51.4145C221.901 50.1111 220.32 49.8358 218.774 50.6351C217.696 51.1929 216.557 53.677 216.939 54.6383C217.147 55.1622 209.45 62.8455 186.434 85.0913L155.651 114.844L139.389 114.872L123.127 114.9L119.265 111.276L115.404 107.652L123.801 99.5515L132.198 91.4512V74.94V58.4287L149.333 41.8654C166.006 25.7475 166.506 25.3081 167.91 25.5284C170.747 25.9733 173.218 21.9088 171.457 19.6928C170.243 18.164 168.167 17.6705 166.549 18.5264ZM192.704 29.9684C192.168 30.2183 191.613 30.7766 191.471 31.2084C191.23 31.9404 190.596 31.9937 182.155 31.9937H173.098L155.537 49.0154L137.976 66.0371L137.908 73.9077C137.87 78.2369 137.97 82.2807 138.13 82.8943L138.42 84.0103H156.42H174.421L192.465 66.5755C209.738 49.8857 210.572 49.1461 211.991 49.2645C214.234 49.451 215.976 47.8376 215.976 45.5734C215.976 43.2174 214.665 41.9509 212.227 41.9509C209.885 41.9509 208.215 43.6344 208.408 45.8014C208.531 47.1724 207.775 47.9696 190.826 64.3535L173.116 81.4729H156.815H140.513V74.1906V66.9083L157.243 50.7197L173.972 34.5311H182.575C189.93 34.5311 191.216 34.6258 191.438 35.1845C191.58 35.5439 192.397 36.1203 193.251 36.4654C194.641 37.0266 194.962 37.0215 196.28 36.4168C197.091 36.0446 197.981 35.212 198.258 34.5666C199.648 31.3247 196.097 28.3855 192.704 29.9684ZM68.0717 33.5356C66.5231 35.1506 66.6185 37.2317 68.3115 38.7601L69.6243 39.945V78.2344V116.523L82.1759 128.619L94.7279 140.716L91.047 144.292L87.3656 147.868H56.6495H25.9335L24.6208 146.599C23.0625 145.094 21.2501 144.937 19.6293 146.17C17.4291 147.842 17.7674 151.104 20.2712 152.356C21.9034 153.171 23.8335 152.789 24.9393 151.43L25.7733 150.406H57.0867H88.4005L93.2441 145.744C97.2182 141.92 98.012 140.952 97.6671 140.352C97.4361 139.951 91.6224 134.199 84.7484 127.572L72.2498 115.522V77.6926V39.8634L73.4312 38.6717C75.8896 36.1918 74.3257 32.4166 70.8399 32.4166C69.5691 32.4166 68.8764 32.6965 68.0717 33.5356ZM197.961 37.9126C197.429 38.1249 196.741 38.6878 196.434 39.1635C195.909 39.9768 195.454 40.0288 188.862 40.0288H181.849L177.109 44.624C170.686 50.8508 170.655 50.7797 179.821 50.929L186.957 51.0453L187.974 52.188C189.317 53.6969 192.099 53.7958 193.557 52.3867C195.031 50.962 194.913 48.2889 193.316 46.9618C191.615 45.5476 189.776 45.6385 188.142 47.2181C186.843 48.4728 186.776 48.4868 182.049 48.4868C179.42 48.4868 177.269 48.3688 177.269 48.2241C177.269 48.0799 178.489 46.7478 179.979 45.2638L182.689 42.5662H188.993H195.297L196.523 43.8349C199.029 46.4277 203.087 44.9162 203.087 41.3905C203.087 38.8003 200.367 36.9543 197.961 37.9126ZM60.3861 38.9715C58.0446 40.2013 57.7439 43.4813 59.8277 45.0655L60.8726 45.8597V58.685V71.5103L58.0284 68.7859L55.1841 66.0616V59.6763C55.1841 53.3924 55.2016 53.2765 56.278 52.372C58.5867 50.4321 57.0534 45.9494 54.0814 45.9494C51.6082 45.9494 49.9681 47.4862 49.9471 49.8236C49.9362 51.0339 50.2197 51.6048 51.2459 52.4396L52.5586 53.507V60.2193V66.9315L57.3151 71.4612C60.7051 74.69 62.276 75.9152 62.7849 75.7266C63.4255 75.4889 63.4981 73.9593 63.4981 60.7382V46.0145L64.8109 44.7458C66.8575 42.7679 66.4785 40.2423 63.9445 38.9758C62.3889 38.1985 61.859 38.1976 60.3861 38.9715ZM162.38 55.476C160.098 57.8235 161.814 61.5967 165.163 61.5967C166.757 61.5967 168.518 60.5855 168.518 59.6695C168.518 59.1743 169.434 59.0593 173.374 59.0593C178.206 59.0593 178.237 59.0656 179.457 60.328C181.913 62.8679 186.021 61.4118 186.021 58.002C186.021 54.6438 181.989 53.1649 179.47 55.5991C178.243 56.7841 178.212 56.7895 173.569 56.6107C169.361 56.4487 168.798 56.3311 167.854 55.4194C166.382 53.9967 163.792 54.0238 162.38 55.476ZM42.4605 56.4893C41.7569 57.1693 41.1815 58.1301 41.1815 58.6249C41.1815 59.8289 42.2995 61.8567 43.1344 62.1663C43.6976 62.3752 43.807 63.4341 43.807 68.6709V74.926L52.3398 83.1645L60.8726 91.403V106.088C60.8726 119.98 60.8284 120.795 60.0574 121.195C58.6987 121.897 58.0419 123.954 58.6917 125.471C59.868 128.215 62.7188 128.81 64.8446 126.756C66.577 125.081 66.5651 123.279 64.8109 121.583L63.4981 120.315V105.436V90.5572L54.9653 82.3187L46.4325 74.0802V68.3829C46.4325 62.7956 46.4539 62.6691 47.5404 61.8242C48.199 61.3116 48.7486 60.3529 48.8965 59.4589C49.0986 58.2359 48.9249 57.703 47.9684 56.6043C46.3795 54.7791 44.2756 54.7351 42.4605 56.4893ZM225.602 60.5204C224.817 61.2786 224.528 62.017 224.528 63.2608C224.528 64.9101 224.248 65.2349 215.558 73.6747C210.624 78.4661 206.587 82.611 206.587 82.8854C206.587 83.1599 210.427 87.0916 215.12 91.6225L223.653 99.861V107.822C223.653 112.502 223.84 116.121 224.106 116.602C224.535 117.376 225.127 117.419 235.188 117.419H245.817L246.845 118.477C247.549 119.202 248.34 119.534 249.357 119.534C251.343 119.534 252.304 118.977 252.96 117.444C254.647 113.508 249.692 110.521 246.618 113.621L245.353 114.898L235.925 114.784L226.497 114.671L226.38 106.635L226.262 98.6004L218.07 90.671L209.878 82.7416L218.183 74.7065C226.257 66.896 226.538 66.6715 228.276 66.6715C230.569 66.6715 232.142 65.2091 232.142 63.0768C232.142 59.8226 228 58.2033 225.602 60.5204ZM120.321 63.0836C119.032 63.7606 118.136 65.7242 118.501 67.0736C118.67 67.6982 118.309 68.3855 117.265 69.4241C116.035 70.6471 115.476 70.892 113.91 70.8958C110.266 70.9047 108.469 74.6486 110.956 77.0515C113.445 79.4574 117.417 77.8491 117.399 74.4431C117.392 73.1329 117.702 72.4918 118.941 71.2527C120.276 69.9164 120.692 69.7332 121.949 69.9303C123.16 70.1202 123.631 69.9417 124.739 68.8705C126.515 67.1548 126.534 65.3605 124.793 63.6786C123.392 62.324 122.096 62.1515 120.321 63.0836ZM155.109 62.862C153.769 63.3843 152.765 64.9502 152.765 66.5167C152.765 68.0294 154.8 70.0546 156.321 70.0546C157.509 70.0546 159.605 68.9551 159.918 68.1672C160.128 67.6373 161.061 67.5172 164.97 67.5172C169.754 67.5172 169.766 67.5198 171.13 68.838C172.304 69.9726 172.718 70.1244 174.062 69.9134C176.017 69.6068 177.092 68.6912 177.433 67.0427C178.213 63.273 173.2 60.9543 170.757 63.9552C169.965 64.9291 169.684 64.9799 165.085 64.9799C161.566 64.9799 160.152 64.8289 159.897 64.4259C159.379 63.6054 157.481 62.4386 156.715 62.4691C156.347 62.4839 155.625 62.6607 155.109 62.862ZM233.427 69.891C231.854 70.6374 230.866 72.5066 231.318 73.8819C231.572 74.6579 230.957 75.4572 227.593 78.7228C224.162 82.0515 223.629 82.7522 224.008 83.428C224.597 84.4768 233.042 92.4683 233.562 92.4683C233.784 92.4683 235.036 91.4216 236.343 90.1424C238.497 88.0351 238.897 87.8164 240.614 87.8164C243.087 87.8164 244.657 86.4209 244.657 84.2218C244.657 82.1052 243.077 80.6271 240.815 80.6271C238.505 80.6271 236.998 82.1525 237.06 84.4269C237.097 85.7962 236.829 86.3206 235.402 87.6667L233.7 89.2729L230.325 86.0115L226.95 82.7497L229.994 79.7851C232.774 77.0777 233.193 76.821 234.827 76.821C236.835 76.821 238.348 75.7672 238.792 74.0603C239.601 70.9457 236.418 68.4722 233.427 69.891ZM145.292 72.1366C143.286 74.0752 143.821 76.6582 146.481 77.8779C147.83 78.4966 148.075 78.4957 149.449 77.8656C150.273 77.4875 151.054 76.9077 151.186 76.577C151.373 76.1051 152.491 75.9769 156.361 75.9824C160.978 75.9892 161.361 76.0547 162.278 76.9898C163.517 78.2525 165.005 78.5346 166.73 77.8335C168.407 77.1522 169.154 75.6526 168.78 73.7229C168.212 70.799 164.633 69.9375 162.324 72.1691C161.026 73.4239 160.959 73.4378 156.232 73.4378C153.466 73.4378 151.452 73.2666 151.452 73.0314C151.452 72.8077 151.021 72.2368 150.494 71.7627C149.057 70.4687 146.854 70.6268 145.292 72.1366ZM30.4607 75.195C29.9794 75.4492 29.3396 75.9558 29.0386 76.3199C28.3896 77.1061 28.3183 79.5242 28.9126 80.5971C29.46 81.5858 31.7301 82.4837 32.9217 82.1826C34.7796 81.7127 35.0553 82.6528 35.0553 89.4586C35.0553 95.6726 35.0313 95.8363 33.9614 96.8703C31.5822 99.1696 33.2297 103.041 36.5869 103.041C40.1252 103.041 41.5582 99.2241 38.9936 96.6309L37.6808 95.303V88.6652C37.6808 82.564 37.6099 81.9652 36.8057 81.2615C36.214 80.7439 35.9305 79.959 35.9305 78.8374C35.9305 75.8936 32.9252 73.892 30.4607 75.195ZM120.75 79.4058C119.373 79.904 118.181 82.0967 118.479 83.5874C118.64 84.396 118.321 84.9893 117.123 86.1083C115.817 87.3288 115.281 87.553 113.9 87.4565C112.59 87.3652 111.997 87.5792 111.063 88.4821C109.008 90.4676 109.692 93.4558 112.453 94.5613C113.534 94.9939 114.002 94.9617 115.299 94.3671C116.95 93.6101 117.482 92.6379 117.402 90.5276C117.328 88.5755 119.86 86.3139 121.928 86.486C123.905 86.6509 126.072 84.7229 126.072 82.7979C126.072 80.2897 123.261 78.4983 120.75 79.4058ZM42.4605 88.6297C41.7569 89.3097 41.1815 90.2705 41.1815 90.7653C41.1815 91.9693 42.2995 93.9971 43.1344 94.3067C43.6836 94.5105 43.807 95.4193 43.807 99.2664C43.807 103.747 43.7553 104.016 42.7467 104.782C40.6187 106.4 40.9303 109.646 43.3287 110.844C45.2379 111.798 46.3388 111.654 47.7789 110.263C49.5113 108.588 49.4995 106.786 47.7452 105.09C46.4465 103.835 46.4325 103.772 46.4325 99.189C46.4325 95.4117 46.5567 94.5101 47.105 94.3067C47.9399 93.9971 49.0579 91.9693 49.0579 90.7653C49.0579 89.3702 46.7493 87.3935 45.1197 87.3935C44.178 87.3935 43.3335 87.786 42.4605 88.6297ZM76.8247 88.4317C75.3308 89.8751 75.3404 92.3715 76.8444 93.737C77.8823 94.6792 77.9383 94.9681 77.9383 99.3658C77.9383 103.767 77.8832 104.051 76.8444 104.981C76.083 105.663 75.7504 106.406 75.7504 107.426C75.7504 109.476 76.1075 110.168 77.5323 110.88C79.3683 111.798 80.4846 111.64 81.9103 110.263C83.6168 108.613 83.6059 106.912 81.8766 105.009C80.6045 103.608 80.5638 103.432 80.5638 99.3172C80.5638 95.163 80.5923 95.0434 81.8766 93.8021C82.8524 92.8591 83.1893 92.1397 83.1893 91.0004C83.1893 87.8168 79.1482 86.1857 76.8247 88.4317ZM145.292 88.6297C143.276 90.578 143.788 93.2435 146.41 94.4522C147.854 95.1174 148.049 95.1174 149.497 94.4505C150.346 94.0589 151.155 93.4524 151.294 93.1031C151.642 92.2264 161.286 92.1647 161.823 93.0363C163.16 95.2062 166.462 95.4176 168.075 93.4359C171.125 89.6886 165.82 85.2841 162.324 88.6622C161.035 89.9085 160.931 89.9309 156.484 89.9309C152.038 89.9309 151.934 89.9085 150.644 88.6622C148.89 86.9668 147.025 86.9554 145.292 88.6297ZM187.143 101.138C175.76 112.163 175.543 112.345 173.775 112.345C171.405 112.345 169.83 113.78 169.83 115.939C169.83 118.056 171.41 119.534 173.672 119.534C175.977 119.534 177.48 118.019 177.388 115.788C177.324 114.239 177.657 113.867 188.348 103.54L199.375 92.8895L207.019 100.286L214.663 107.683L212.281 110.014C210.161 112.088 209.701 112.345 208.1 112.345C204.287 112.345 202.673 116.765 205.674 118.992C206.738 119.781 209.417 119.641 210.574 118.735C211.364 118.117 211.603 117.492 211.633 115.972C211.669 114.114 211.846 113.837 214.892 110.874C217.77 108.074 218.047 107.664 217.499 107.026C215.456 104.647 199.796 89.9309 199.307 89.9309C198.982 89.9309 193.508 94.974 187.143 101.138ZM243.938 92.8878C242.557 93.4262 241.594 94.9905 241.594 96.6931C241.594 98.0349 241.109 98.6587 236.986 102.626C230.746 108.629 230.769 108.714 238.659 108.868C243.556 108.964 244.742 109.106 244.947 109.623C245.087 109.974 245.782 110.552 246.492 110.907C248.155 111.738 250.065 111.343 251.215 109.929C252.508 108.341 252.346 106.601 250.763 105.071C249.61 103.957 249.21 103.816 247.809 104.033C246.82 104.185 245.841 104.7 245.297 105.353C244.474 106.342 244.131 106.424 240.811 106.424C238.835 106.424 237.218 106.31 237.218 106.171C237.218 106.031 238.715 104.539 240.545 102.854C243.106 100.497 244.101 99.834 244.865 99.9748C246.304 100.241 248.435 99.0237 248.914 97.6615C249.511 95.9632 248.838 94.0584 247.338 93.2021C245.925 92.3952 245.34 92.341 243.938 92.8878ZM52.6767 95.7661C51.2791 95.9695 49.9331 97.8235 49.9331 99.5451C49.9331 100.627 50.2757 101.319 51.2459 102.195C52.5385 103.362 52.5586 103.446 52.5586 107.693C52.5586 111.939 52.5385 112.024 51.2459 113.19C47.5584 116.519 52.2488 121.676 56.219 118.657C57.8091 117.449 57.838 114.871 56.278 113.363C55.2383 112.359 55.1841 112.065 55.1841 107.462C55.1841 104.591 55.3582 102.618 55.6116 102.618C56.3673 102.618 57.505 100.498 57.4656 99.162C57.3996 96.9117 55.2545 95.3906 52.6767 95.7661ZM155.508 95.7606C154.972 95.8418 154.156 96.3713 153.695 96.9371C152.871 97.9491 152.746 97.966 145.963 97.966H139.069L134.304 102.504C127.739 108.757 127.721 108.717 137.004 108.867L144.217 108.983L145.16 110.126C146.519 111.773 149.36 111.756 150.842 110.091C152.312 108.439 152.212 106.67 150.557 105.071C149.405 103.958 149.003 103.816 147.603 104.032C146.649 104.178 145.586 104.721 145.019 105.352C144.096 106.378 143.849 106.424 139.221 106.424C136.562 106.424 134.386 106.353 134.386 106.268C134.386 106.181 135.692 104.849 137.288 103.307L140.188 100.503H146.301H152.414L153.64 101.772C156.146 104.365 160.204 102.853 160.204 99.3278C160.204 96.9054 158.168 95.3588 155.508 95.7606ZM20.3767 100.273C17.9756 102.593 19.6835 106.424 23.1185 106.424C24.661 106.424 25.1559 106.782 29.7037 111.19L34.6204 115.955L30.9998 119.436C27.602 122.703 27.2651 122.917 25.5152 122.917C24.2418 122.917 23.5688 122.711 23.3925 122.267C22.9754 121.216 20.7026 120.294 19.2757 120.597C17.7656 120.917 16.2393 122.634 16.2393 124.012C16.2393 127.619 20.311 129.301 22.803 126.723C23.869 125.62 24.3341 125.454 26.3623 125.454H28.6955L33.1882 121.127C35.9449 118.472 37.6808 116.468 37.6808 115.941C37.6808 115.403 35.629 113.103 32.211 109.807C27.1215 104.9 26.7413 104.422 26.7413 102.922C26.7413 99.6031 22.7768 97.9529 20.3767 100.273ZM197.617 104.397C196.187 105.19 195.676 106.112 195.662 107.927C195.643 110.313 193.526 112.339 191.032 112.358C190.081 112.365 188.99 112.603 188.608 112.887C186.585 114.388 186.485 117.63 188.424 118.859C189.703 119.668 192.078 119.718 193.115 118.957C194.116 118.222 194.86 116.237 194.521 115.205C194.322 114.6 194.695 113.927 195.876 112.758C197.26 111.388 197.714 111.179 198.898 111.364C200.891 111.677 203.087 109.862 203.087 107.901C203.087 105.911 202.72 105.212 201.305 104.505C199.833 103.769 198.804 103.739 197.617 104.397ZM43.3204 120.997C40.9832 122.259 40.6787 125.524 42.7511 127.1C43.7523 127.861 43.7886 128.101 43.9054 134.805C44.0577 143.568 44.0691 143.574 49.6994 138.156L53.7256 134.281L56.096 136.658C58.1382 138.706 58.4747 139.278 58.5298 140.793C58.6874 145.108 64.8669 145.884 65.9468 141.724C66.5879 139.256 64.8529 137.217 62.0371 137.129C60.9387 137.094 59.8942 136.46 57.4398 134.335C55.693 132.824 53.9842 131.587 53.6425 131.587C53.3012 131.587 51.539 132.996 49.727 134.718L46.4325 137.85V132.953C46.4325 128.077 46.4377 128.052 47.7452 126.788C49.3537 125.234 49.475 123.422 48.0734 121.883C46.8587 120.549 44.8445 120.173 43.3204 120.997ZM248.751 120.799C248.235 121 247.528 121.558 247.18 122.04L246.546 122.915L179.636 123.022L112.726 123.129L112.612 140.785L112.498 158.441H177.308H242.118L243.344 159.709C245.76 162.208 250.083 160.759 250.083 157.45C250.083 154.117 245.969 152.482 243.526 154.843L242.435 155.898L178.784 156.006L115.133 156.115V140.785V125.454H180.745C243.974 125.454 246.378 125.483 246.929 126.233C249.187 129.308 253.846 127.915 253.846 124.166C253.846 122.902 253.565 122.341 252.5 121.475C251.092 120.33 250.314 120.189 248.751 120.799ZM17.9516 129.38C17.57 129.663 17.0283 130.311 16.7482 130.819C14.7025 134.531 19.6424 137.896 22.8197 134.954C23.9272 133.929 24.1766 133.887 28.4553 134.003L32.9322 134.124L30.2126 136.767C27.9381 138.978 27.2493 139.41 26.0022 139.41C24.9253 139.41 24.2291 139.093 23.4953 138.268C21.2864 135.786 17.1145 137.423 17.1145 140.772C17.1145 144.29 20.991 145.748 23.6108 143.216C24.6667 142.196 25.296 141.948 26.8249 141.948C28.6553 141.948 28.8946 141.784 33.2468 137.564C39.3756 131.62 39.376 131.62 30.806 131.47L24.1604 131.353L22.859 130.095C21.4527 128.736 19.2516 128.415 17.9516 129.38ZM68.711 129.38C65.7302 131.592 67.0754 136.027 70.727 136.027C71.8682 136.027 72.7854 136.41 74.0215 137.401C75.5636 138.638 75.7355 138.973 75.7425 140.754C75.7491 142.382 75.9543 142.887 76.9035 143.608C80.268 146.166 84.7344 142.567 82.7167 138.924C82.1439 137.89 79.7053 136.837 78.5544 137.128C77.4386 137.409 74.2023 134.269 74.5935 133.284C74.9706 132.334 73.8242 129.849 72.753 129.294C71.5895 128.693 69.5801 128.735 68.711 129.38ZM119.664 129.84C117.202 131.887 118.767 136.027 122.038 136.117C123.437 136.156 125.635 135.061 125.635 134.326C125.635 134.059 147.012 133.912 186.042 133.912H246.449L247.428 135.012C248.162 135.837 248.821 136.112 250.067 136.112C252.377 136.112 253.846 134.727 253.846 132.551C253.846 129.025 249.788 127.514 247.282 130.106L246.056 131.375H186.249H126.443L125.13 130.106C123.47 128.502 121.396 128.401 119.664 129.84ZM247.895 137.477C247.149 137.79 246.416 138.354 246.268 138.729C246.021 139.351 240.94 139.41 188.145 139.41H130.292L125.973 143.533C121.038 148.244 120.53 148.922 121.282 149.798C121.731 150.321 130.38 150.406 183.244 150.406C238.111 150.406 244.712 150.475 244.943 151.056C245.084 151.413 245.782 151.996 246.492 152.351C250.404 154.306 253.936 149.581 250.817 146.567C249.084 144.893 247.219 144.904 245.465 146.599L244.152 147.868H184.796H125.44L128.479 144.908L131.518 141.948H188.492H245.465L246.777 143.216C248.532 144.912 250.397 144.923 252.13 143.249C254.228 141.221 253.701 138.57 250.981 137.471C249.241 136.769 249.579 136.768 247.895 137.477ZM21.2518 154.827C18.8819 157.117 20.5569 160.978 23.9202 160.978C25.1279 160.978 25.8127 160.67 26.7413 159.709L27.9674 158.441H60.2163H92.4652L93.6913 159.709C97.1359 163.273 102.471 158.74 99.3479 154.903C98.0973 153.366 95.4302 153.338 93.8702 154.846L92.7763 155.903H60.1498H27.5237L26.663 154.846C25.467 153.376 22.7623 153.367 21.2518 154.827ZM24.5534 162.371C22.1703 163.536 21.8539 166.443 23.8948 168.415C25.3944 169.864 27.3381 169.77 28.9966 168.167L30.3093 166.899H57.1532H83.9971L85.3098 168.167C87.8671 170.639 91.7025 169.145 91.7025 165.677C91.7025 163.554 90.5809 162.323 88.3252 161.97C86.9464 161.753 86.5456 161.898 85.3636 163.041L83.9971 164.361H57.1532H30.3093L28.9966 163.093C27.5862 161.73 26.2945 161.52 24.5534 162.371ZM120.474 162.267C117.929 163.254 117.887 167.554 120.41 168.814C122.261 169.74 123.368 169.577 124.827 168.167C126.125 166.913 126.194 166.899 130.904 166.899C135.104 166.899 135.72 166.992 136.105 167.687C136.691 168.745 138.928 169.593 140.273 169.267C144.173 168.321 144.065 162.912 140.127 161.957C138.962 161.675 136.338 162.821 135.957 163.78C135.781 164.224 134.595 164.361 130.933 164.361C126.19 164.361 126.126 164.348 124.827 163.093C123.484 161.794 122.28 161.566 120.474 162.267ZM241.092 163.089L239.783 164.354L214.768 164.464C190.616 164.569 189.747 164.6 189.593 165.374C189.476 165.959 193.664 170.265 205.121 181.34C220.601 196.305 220.809 196.529 220.837 198.255C220.872 200.465 222.493 201.999 224.792 201.999C228.03 201.999 229.691 198.07 227.392 195.848C226.353 194.844 225.721 194.651 223.872 194.775C223.266 194.816 218.557 190.538 208.559 180.866L194.121 166.899H216.949H239.776L241.089 168.167C242.547 169.576 243.655 169.74 245.501 168.817C246.907 168.115 247.285 167.405 247.276 165.49C247.268 163.936 247.022 163.517 245.544 162.539C243.957 161.49 242.57 161.661 241.092 163.089ZM123.666 195.656C91.3712 226.869 91.2819 226.95 89.5023 226.95C85.9299 226.95 84.2128 230.948 86.8457 233.137C89.5745 235.406 93.392 233.706 93.1846 230.315L93.08 228.601L125 197.75L156.92 166.899H165.018H173.116L192.915 186.037C211.71 204.205 212.713 205.252 212.713 206.702C212.713 209.73 215.663 211.615 218.323 210.286C222.09 208.402 219.998 202.632 215.827 203.402C214.933 203.568 211.839 200.753 194.474 183.979L174.167 164.361H165.105H156.044L123.666 195.656ZM27.378 171.32C26.6363 172.036 26.3037 172.828 26.3037 173.877C26.3037 177.221 30.4524 178.843 32.737 176.391L33.7006 175.357H46.2972H58.8943L51.3032 182.702C43.9282 189.838 43.6621 190.046 41.9661 190.003C40.5654 189.967 40.0118 190.192 39.169 191.139C36.9177 193.669 38.4987 197.347 41.8378 197.347C44.0485 197.347 45.5573 195.823 45.5573 193.589C45.5573 191.964 45.8627 191.612 54.5627 183.223C60.7291 177.277 63.5205 174.301 63.4176 173.785C63.2776 173.082 62.276 173.023 48.6751 172.919L34.0826 172.808L32.8617 171.545C31.2681 169.896 28.9493 169.801 27.378 171.32ZM76.9035 171.159C75.9858 171.856 75.7504 172.396 75.7504 173.804C75.7504 175.558 75.6393 175.681 63.5156 187.392C51.5172 198.983 51.2458 199.212 49.4535 199.255C45.8566 199.342 44.3128 202.976 46.8363 205.415C48.1732 206.707 49.7651 206.994 51.2699 206.216C52.4247 205.618 53.5624 203.363 53.2618 202.267C53.0574 201.522 55.1705 199.279 65.364 189.418C77.2102 177.958 77.7817 177.471 79.3775 177.471C81.6079 177.471 83.1893 175.98 83.1893 173.877C83.1893 170.76 79.5167 169.172 76.9035 171.159ZM110.956 171.32C110.214 172.036 109.882 172.828 109.882 173.877C109.882 177.259 113.852 178.767 116.47 176.377C117.514 175.423 117.908 175.357 122.486 175.357C125.383 175.357 127.385 175.525 127.385 175.77C127.385 176.434 129.488 177.577 130.709 177.577C134.501 177.577 136.074 173.037 133.004 170.959C131.384 169.862 129.391 170.097 127.971 171.551C126.751 172.799 126.659 172.819 122.278 172.819C117.914 172.819 117.799 172.794 116.513 171.551C114.807 169.902 112.521 169.807 110.956 171.32ZM237.359 171.543L236.084 172.803L225.826 172.917C216.171 173.024 215.56 173.078 215.41 173.829C215.297 174.396 217.133 176.449 221.745 180.914C227.596 186.577 228.224 187.327 228.098 188.489C227.805 191.186 230.397 193.122 233.131 192.25C237.314 190.916 236.015 184.682 231.657 185.174C230.357 185.321 229.829 184.932 225.095 180.345L219.947 175.357H228.125C236.265 175.357 236.308 175.362 237.397 176.414C239.813 178.749 243.957 177.147 243.957 173.877C243.957 170.464 239.902 169.029 237.359 171.543ZM77.7195 190.158C60.3882 206.912 59.7266 207.497 58.1198 207.497C54.6901 207.497 52.9844 211.33 55.3832 213.648C57.7667 215.952 61.8485 214.322 61.8213 211.077C61.8078 209.43 62.1036 209.113 78.2941 193.436C87.3621 184.655 94.9296 177.471 95.1112 177.471C95.2928 177.471 95.4416 180.232 95.4416 183.606V189.74L82.3286 202.436C70.7791 213.618 69.0887 215.102 68.154 214.875C66.6461 214.509 64.5558 215.686 64.0057 217.211C63.3787 218.95 64.1156 220.879 65.7119 221.677C67.5628 222.602 68.6699 222.44 70.1292 221.03C71.1738 220.02 71.4149 219.459 71.3094 218.28C71.1821 216.851 71.656 216.335 84.6224 203.779L98.0671 190.761L98.061 182.742C98.0544 173.666 97.9288 172.819 96.592 172.819C95.9431 172.819 90.1587 178.134 77.7195 190.158ZM159.868 177.161L155.39 181.503V189.75V197.998L151.014 202.211L146.639 206.424V220.883V235.343L145.326 236.612C143.303 238.567 143.8 241.156 146.428 242.362C148.272 243.207 150.342 242.571 151.246 240.881C152.192 239.114 152.043 238.144 150.577 236.53C149.447 235.287 149.264 234.749 149.264 232.679V230.272L150.45 231.173C151.249 231.782 152.12 232.034 153.124 231.951C154.361 231.848 154.896 232.105 156.278 233.464C157.707 234.87 157.908 235.298 157.706 236.504C157.51 237.668 157.697 238.126 158.803 239.195C160.432 240.769 162.294 240.891 163.914 239.532C166.676 237.212 165.192 233.175 161.542 233.087C158.94 233.024 156.703 230.933 156.703 228.563C156.703 225.314 153.094 223.678 150.417 225.713L149.264 226.589V217.173V207.757L153.64 203.459L158.016 199.162V190.907V182.653L161.569 179.163L165.122 175.673L184.774 194.651C201.146 210.461 204.388 213.783 204.194 214.551C203.904 215.695 204.624 217.608 205.62 218.339C206.506 218.99 208.946 219.083 210.057 218.508C210.489 218.285 211.089 217.527 211.39 216.825C212.517 214.197 210.732 211.726 207.706 211.726C205.944 211.726 205.745 211.549 185.802 192.273C174.733 181.573 165.377 172.819 165.011 172.819C164.645 172.819 162.33 174.773 159.868 177.161ZM36.8393 176.874C36.0215 177.54 35.4929 178.369 35.4929 178.989C35.4929 179.774 35.2592 180.009 34.4751 180.009C32.9427 180.009 31.3796 181.857 31.3796 183.67C31.3796 187.754 37.7495 188.525 38.7857 184.565C38.9432 183.963 39.6753 183.342 40.7421 182.904C42.054 182.367 42.5371 181.879 42.8368 180.79C43.3589 178.892 42.7008 177.173 41.1557 176.401C39.383 175.515 38.3748 175.626 36.8393 176.874ZM119.907 179.496C118.675 180.56 118.454 181.026 118.513 182.44C118.571 183.846 118.335 184.351 117.07 185.537C115.816 186.711 115.273 186.934 113.9 186.838C110.613 186.609 108.682 190.261 110.747 192.799C113.151 195.752 118.423 193.34 117.447 189.734C117.268 189.072 117.645 188.393 118.859 187.191C120.207 185.857 120.736 185.595 121.708 185.783C122.983 186.03 124.639 185.372 125.511 184.274C127.027 182.366 125.404 178.98 122.737 178.486C121.626 178.28 121.096 178.47 119.907 179.496ZM145.245 188.057C144.162 189.103 143.959 189.59 144.141 190.7C144.344 191.933 144.07 192.35 141.235 195.139L138.106 198.216V216.918V235.62L136.902 236.764C134.343 239.196 135.949 243.19 139.487 243.19C142.899 243.19 144.433 238.968 141.825 236.756L140.513 235.643V217.592V199.54L143.429 196.721C145.6 194.624 146.569 193.959 147.218 194.122C148.571 194.465 150.967 193.295 151.455 192.054C152.161 190.258 151.965 189.32 150.611 188.011C148.873 186.332 147.014 186.347 145.245 188.057ZM162.899 187.452C160.516 189.065 160.843 192.713 163.465 193.771C164.243 194.086 165.324 194.23 165.867 194.093C166.71 193.88 168.85 195.769 180.385 206.908C192.701 218.802 193.89 220.074 193.659 221.105C193.368 222.4 194.379 224.6 195.449 224.996C199.363 226.448 202.834 222.91 200.596 219.75C199.553 218.276 199.159 218.083 197.182 218.076C195.476 218.07 195.115 217.762 182.014 205.105C169.219 192.744 168.605 192.079 168.818 190.809C168.991 189.782 168.772 189.167 167.866 188.126C166.522 186.583 164.573 186.318 162.899 187.452ZM162.532 204.283C161.552 205.097 161.319 205.633 161.356 206.985C161.397 208.511 161.115 208.969 158.396 211.785C156.743 213.497 155.391 215.12 155.39 215.391C155.39 216.004 164.557 224.836 165.194 224.836C165.449 224.836 167.479 223.082 169.707 220.938L173.756 217.041L177.128 220.32L180.498 223.598L177.034 226.966C173.784 230.126 173.455 230.334 171.7 230.334C168.669 230.334 166.947 232.765 168.091 235.433C168.751 236.973 169.709 237.523 171.732 237.523C173.821 237.523 175.709 235.434 175.382 233.484C175.175 232.254 175.487 231.83 179.276 228.183C181.542 226.002 183.396 223.926 183.396 223.568C183.396 222.73 174.618 214.261 173.761 214.271C173.404 214.275 171.379 215.906 169.26 217.894C167.141 219.882 165.236 221.448 165.026 221.374C164.816 221.301 163.238 219.927 161.52 218.321L158.397 215.4L160.829 213.025C162.999 210.906 163.455 210.65 165.061 210.65C168.627 210.65 170.203 206.946 167.676 204.504C166.075 202.957 164.223 202.877 162.532 204.283ZM125.716 210.167L121.218 214.529L121.129 224.855L121.04 235.182L119.748 236.299C118.016 237.799 117.999 240.211 119.711 241.634C123.563 244.837 128.472 239.606 124.76 236.254L123.447 235.069V225.419V215.769L126.377 213.114C127.988 211.652 129.366 210.457 129.44 210.457C129.513 210.457 129.573 216.152 129.573 223.112V235.766L128.26 237.035C126.033 239.187 126.98 242.589 129.984 243.227C133.838 244.044 136.331 239.063 133.243 236.715L132.198 235.921V221.532C132.198 213.618 132.079 206.842 131.933 206.474C131.4 205.134 130.125 205.891 125.716 210.167ZM108.395 226.904C103.9 231.265 103.545 231.516 102.18 231.302C100.981 231.114 100.505 231.296 99.4 232.364C97.8168 233.894 97.6544 235.633 98.9475 237.222C101.356 240.18 106.681 237.882 105.747 234.287C105.551 233.53 106.157 232.717 108.832 230.147C110.663 228.389 112.239 226.95 112.334 226.95C112.429 226.95 112.507 228.491 112.507 230.375C112.507 233.636 112.444 233.857 111.195 234.985C108.587 237.34 110.072 241.329 113.557 241.329C117.153 241.329 118.76 237.541 116.242 235C115.017 233.765 114.991 233.639 115.061 229.392C115.14 224.663 114.76 222.574 113.789 222.395C113.445 222.332 111.018 224.361 108.395 226.904Z" fill="#193040"/>
<path d="M130.532 301.436C23.2273 269.156 25.5856 262.239 10.2564 224.195C80.0633 234.34 124.243 147.722 137.607 103.145V301.436H130.532Z" fill="white" stroke="white"/>
<path fill-rule="evenodd" clip-rule="evenodd" d="M129.521 85.0532C125 126.035 108.25 161.392 80.7201 188.061C57.6116 210.446 40.6648 218.892 18.5666 219.034L2.76789 219.136L8.214 232.947C11.2116 240.543 14.7821 249.515 16.149 252.885C19.0824 260.113 34.4128 270.8 55.6433 280.42C76.4983 289.869 122.865 304 133.018 304C143.171 304 189.538 289.869 210.392 280.42C231.623 270.8 246.953 260.113 249.887 252.885C251.254 249.515 254.824 240.543 257.822 232.947L263.268 219.136L247.469 219.034C225.371 218.892 208.424 210.446 185.316 188.061C157.786 161.392 141.036 126.035 136.515 85.0532C135.642 77.1418 134.069 70.6667 133.018 70.6667C131.967 70.6667 130.394 77.1418 129.521 85.0532ZM124.275 158.613C104.252 195.512 63.507 224.485 29.2282 226.202L12.9707 227.017L26.0452 224.782C61.1964 218.774 100.156 187.709 118.382 151.148C123.771 140.341 129 127.911 130.004 123.526C131.689 116.167 131.884 116.577 132.542 128.807C133.168 140.41 132.138 144.123 124.275 158.613ZM133.018 170.79C133.018 177.622 130.446 181.461 116.014 196.172C102.502 209.947 94.85 215.503 78.7613 223.228C59.8081 232.325 57.1338 232.972 36.9302 233.336L15.3479 233.722L32.6347 231.84C65.5348 228.256 102.238 205.097 123.802 174.319C128.216 168.016 132.096 162.833 132.424 162.8C132.752 162.768 133.018 166.364 133.018 170.79ZM2.21401 189.361C-1.36839 198.49 -0.541133 207.682 4.24411 211.873C8.77263 215.842 25.6791 216.854 34.0729 213.662C36.8922 212.589 34.0848 211.965 26.4445 211.965C9.93744 211.965 3.96123 206.743 5.06662 193.286C5.99847 181.931 5.43508 181.158 2.21401 189.361ZM260.979 193.394C262.075 206.733 256.051 211.965 239.591 211.965C231.951 211.965 229.144 212.589 231.963 213.662C234.416 214.596 241.341 215.432 247.348 215.522C262.013 215.738 267.302 210.343 265.46 197.04C263.677 184.184 259.976 181.171 260.979 193.394ZM121.955 212.921C97.1987 234.197 60.6782 246.012 31.9881 242.032L17.7251 240.053L40.3082 238.561C52.9619 237.723 67.5958 235.244 73.5886 232.924C88.7478 227.049 114.405 210.31 123.825 200.148C131.77 191.576 131.836 191.555 132.652 197.268C133.291 201.754 130.931 205.207 121.955 212.921ZM133.018 221.408C133.018 226.177 130.301 228.458 116.765 235.06C107.827 239.417 94.0347 244.61 86.1139 246.597C67.8477 251.18 34.496 251.191 24.8566 246.62C20.9342 244.757 19.584 243.731 21.8566 244.339C50.0998 251.877 88.9903 243.979 118.194 224.775C125.694 219.845 132.096 215.78 132.424 215.745C132.752 215.71 133.018 218.259 133.018 221.408ZM133.018 240.736C133.018 249.046 96.6163 259.954 67.6457 260.325C49.7551 260.555 27.336 256.398 24.7686 252.374C24.1339 251.38 27.6379 251.679 32.5562 253.037C54.4666 259.086 95.1781 253.907 118.605 242.087C131.894 235.382 133.018 235.276 133.018 240.736ZM133.018 259.227C133.018 264.998 116.634 268.71 84.1171 270.315C59.0189 271.551 39.6117 268.126 29.6109 260.691C25.5103 257.641 26.3257 257.669 35.5539 260.891C51.0102 266.287 88.9856 265.822 110.435 259.975C132.134 254.059 133.018 254.029 133.018 259.227ZM133.018 275.365C133.018 279.027 130.691 280.084 119.694 281.414C105.4 283.145 76.9167 281.35 65.2685 277.987C59.8795 276.429 64.2321 275.837 83.0973 275.558C96.8255 275.356 112.871 274.359 118.755 273.346C124.638 272.334 130.256 271.374 131.235 271.215C132.214 271.056 133.018 272.925 133.018 275.365ZM133.018 292.56V298.08L115.783 293.897C106.306 291.598 96.4095 289.236 93.7946 288.647C91.1797 288.057 98.934 287.454 111.029 287.307C132.726 287.045 133.018 287.114 133.018 292.56Z" fill="#193040"/>
</svg>
