<svg width="150" height="176" viewBox="0 0 150 176" fill="none" xmlns="http://www.w3.org/2000/svg">
<g clip-path="url(#clip0_14_2)">
<path d="M76.2019 147.31C116.561 147.31 149.279 114.495 149.279 74.0164C149.279 33.5378 116.561 0.723282 76.2019 0.723282C35.8427 0.723282 3.125 33.5378 3.125 74.0164C3.125 114.495 35.8427 147.31 76.2019 147.31Z" stroke="#193040" stroke-width="3"/>
<path fill-rule="evenodd" clip-rule="evenodd" d="M76.6663 7.32449C76.1418 7.77616 75.9841 8.13838 75.9644 8.93554C75.9385 9.95311 75.8226 10.0801 64.812 21.129L53.6861 32.2946V50.8322C53.6861 61.0276 53.5995 69.3696 53.4942 69.3696C53.3889 69.3696 52.6135 68.6733 51.7711 67.8222L50.2399 66.2744V56.6291V46.9841L47.7786 44.4905L45.3172 41.9973V32.7061V23.4152L49.7716 18.9292C54.2154 14.4537 54.2288 14.4431 55.4687 14.3238C56.4005 14.234 56.824 14.0572 57.162 13.6166C58.2481 12.2023 57.3014 10.1442 55.5659 10.1442C54.2428 10.1442 53.4399 10.9483 53.4399 12.2731C53.4399 13.2532 53.3096 13.4105 48.6399 18.0837L43.8403 22.887V32.7261V42.5653L46.3017 45.0709L48.763 47.5766V57.1826V66.7889L51.4726 69.4944C53.776 71.795 54.2461 72.16 54.6106 71.9295C55.012 71.6759 55.0437 70.3971 55.1029 52.2884L55.1659 32.9179L66.1159 21.9987C76.9192 11.2252 77.0793 11.0789 78.0856 11.0536C80.101 11.003 80.9659 8.88106 79.5495 7.4623C78.6529 6.56408 77.6072 6.51403 76.6663 7.32449ZM66.4361 7.98577C65.8154 8.60761 65.7087 8.8771 65.8178 9.55C65.9457 10.34 65.7062 10.6065 57.3562 18.9684L48.763 27.5738V31.4397V35.3054L48.0247 36.0451C47.0379 37.0339 47.0312 38.0847 48.0057 39.0609C48.9058 39.9623 49.9481 40.0094 50.8976 39.1913C51.8697 38.3535 51.8769 36.7555 50.9111 35.9845L50.2399 35.4482V31.8281V28.208L58.5952 19.8732C66.8139 11.6752 66.9673 11.5386 67.9476 11.5386C69.1692 11.5386 69.8875 10.9012 70.0923 9.63554C70.2178 8.86206 70.1337 8.63253 69.488 7.98577C68.9692 7.46626 68.499 7.23471 67.962 7.23471C67.425 7.23471 66.9543 7.46626 66.4361 7.98577ZM85.3038 8.33319C84.8692 8.76837 84.6995 9.20774 84.6995 9.89887C84.6995 10.8383 84.4135 11.1465 71.5312 24.0753L58.3625 37.2913V75.9548V114.618L51.6534 121.335C45.1338 127.863 44.9169 128.053 43.9617 128.06C42.567 128.072 41.625 128.964 41.625 130.275C41.625 131.119 42.9222 132.246 43.8829 132.236C45.2312 132.224 46.2254 131.061 45.9724 129.793C45.8523 129.192 46.5003 128.467 52.8394 122.12L59.8394 115.111V76.5209V37.9306L72.824 24.9249C85.2817 12.4474 85.8457 11.9195 86.7173 11.9195C88.0409 11.9195 88.9332 11.0758 88.9332 9.82369C88.9332 7.9377 86.6389 6.99554 85.3038 8.33319ZM93.6836 9.73863C92.8721 10.1829 92.5764 10.7264 92.5702 11.7817C92.5644 12.7687 92.4288 12.9186 82.7245 22.6343L72.8846 32.4864V42.1156V51.745L68.0851 56.5481C65.4452 59.19 63.2856 61.5253 63.2856 61.7379C63.2856 61.9505 64.4894 63.3127 65.9606 64.7651L68.6361 67.4061L78.4524 67.3935L88.2687 67.3805L105.674 49.956C123.003 32.6072 123.084 32.5308 124.106 32.5052C126.129 32.4544 126.997 30.3354 125.577 28.9137C124.819 28.1537 123.93 27.9932 123.061 28.4592C122.454 28.7844 121.813 30.2328 122.028 30.7932C122.145 31.0987 117.816 35.5784 104.869 48.5485L87.5538 65.8954L78.4062 65.9118L69.2586 65.9281L67.0865 63.8152L64.9144 61.7022L69.638 56.9796L74.3615 52.2566V42.6299V33.0032L83.9995 23.3462C93.3788 13.9487 93.6596 13.6926 94.4495 13.821C96.0452 14.0804 97.4351 11.7107 96.4447 10.4186C95.7615 9.52729 94.5942 9.23957 93.6836 9.73863ZM108.396 16.4098C108.094 16.5555 107.782 16.8809 107.702 17.1327C107.567 17.5595 107.211 17.5905 102.462 17.5905H97.3678L87.4894 27.5149L77.6115 37.4392L77.5731 42.0281C77.5519 44.5522 77.6082 46.9098 77.6981 47.2676L77.8611 47.9183H87.9865H98.112L108.262 37.7531C117.978 28.0223 118.447 27.5911 119.245 27.6601C120.506 27.7688 121.487 26.8282 121.487 25.5081C121.487 24.1344 120.749 23.396 119.378 23.396C118.06 23.396 117.121 24.3775 117.229 25.641C117.299 26.4404 116.874 26.9051 107.34 36.4577L97.3779 46.4389H88.2082H79.0385V42.193V37.9471L88.449 28.5085L97.8591 19.07H102.699C106.836 19.07 107.559 19.1252 107.684 19.4509C107.764 19.6605 108.223 19.9965 108.704 20.1978C109.486 20.5249 109.666 20.522 110.408 20.1694C110.864 19.9524 111.364 19.4669 111.52 19.0906C112.302 17.2005 110.305 15.4868 108.396 16.4098ZM38.2903 18.4895C37.4193 19.4312 37.4729 20.6445 38.4252 21.5356L39.1637 22.2265V44.5507V66.8747L46.2239 73.9272L53.2846 80.9798L51.2139 83.0648L49.1433 85.1498H31.8654H14.5876L13.8492 84.4101C12.9727 83.532 11.9532 83.4414 11.0414 84.1598C9.80384 85.1348 9.99413 87.0366 11.4025 87.7661C12.3206 88.2421 13.4063 88.0188 14.0284 87.2266L14.4975 86.6296H32.1112H49.7255L52.45 83.9115C54.6851 81.6818 55.1317 81.1172 54.938 80.7681C54.8077 80.5337 51.5375 77.1806 47.671 73.3163L40.6405 66.2908V44.2349V22.1789L41.3051 21.4841C42.6879 20.0382 41.8082 17.8371 39.8474 17.8371C39.1326 17.8371 38.743 18.0004 38.2903 18.4895ZM111.353 21.0415C111.054 21.1653 110.667 21.4935 110.494 21.7709C110.199 22.245 109.943 22.2753 106.235 22.2753H102.29L99.624 24.9545C96.0111 28.585 95.9937 28.5435 101.15 28.6306L105.163 28.6984L105.735 29.3646C106.491 30.2444 108.056 30.3021 108.876 29.4805C109.705 28.6498 109.638 27.0913 108.74 26.3175C107.784 25.493 106.749 25.546 105.83 26.467C105.1 27.1986 105.062 27.2067 102.402 27.2067C100.924 27.2067 99.7139 27.1379 99.7139 27.0536C99.7139 26.9695 100.4 26.1928 101.238 25.3276L102.762 23.7547H106.309H109.854L110.544 24.4944C111.954 26.0061 114.236 25.1249 114.236 23.0693C114.236 21.559 112.706 20.4828 111.353 21.0415ZM33.9672 21.6589C32.65 22.3759 32.481 24.2883 33.6531 25.2119L34.2409 25.675V33.1526V40.6303L32.641 39.0419L31.0411 37.4535V33.7306C31.0411 30.0669 31.0509 29.9993 31.6564 29.4719C32.955 28.3409 32.0925 25.7272 30.4208 25.7272C29.0296 25.7272 28.1071 26.6233 28.0952 27.9861C28.0891 28.6918 28.2486 29.0246 28.8258 29.5113L29.5642 30.1337V34.0472V37.9607L32.2398 40.6017C34.1466 42.4842 35.0302 43.1985 35.3165 43.0886C35.6768 42.95 35.7177 42.0582 35.7177 34.3497V25.7652L36.4561 25.0255C37.6073 23.8724 37.3941 22.3998 35.9687 21.6614C35.0937 21.2082 34.7957 21.2077 33.9672 21.6589ZM91.3389 31.2817C90.0553 32.6504 91.0202 34.8503 92.9038 34.8503C93.801 34.8503 94.7913 34.2607 94.7913 33.7267C94.7913 33.4379 95.3067 33.3709 97.5231 33.3709C100.241 33.3709 100.259 33.3746 100.945 34.1105C102.326 35.5914 104.637 34.7425 104.637 32.7544C104.637 30.7964 102.369 29.9342 100.952 31.3535C100.262 32.0443 100.244 32.0475 97.6327 31.9432C95.2659 31.8488 94.9486 31.7802 94.4178 31.2486C93.5899 30.4192 92.1332 30.435 91.3389 31.2817ZM23.884 31.8724C23.4883 32.2689 23.1646 32.8292 23.1646 33.1176C23.1646 33.8196 23.7935 35.0019 24.2631 35.1824C24.5799 35.3042 24.6414 35.9216 24.6414 38.9748V42.6218L29.4412 47.4252L34.2409 52.2286V60.7904C34.2409 68.8898 34.216 69.3657 33.7823 69.5981C33.018 70.008 32.6486 71.2072 33.0141 72.092C33.6757 73.6914 35.2793 74.0381 36.475 72.8404C37.4495 71.8644 37.4429 70.8137 36.4561 69.8247L35.7177 69.0851V60.4099V51.7353L30.918 46.9321L26.1183 42.1287V38.8069C26.1183 35.5492 26.1303 35.4755 26.7415 34.9829C27.1119 34.6841 27.4211 34.1251 27.5043 33.6038C27.618 32.8908 27.5203 32.5801 26.9822 31.9395C26.0885 30.8754 24.905 30.8497 23.884 31.8724ZM126.901 34.2227C126.46 34.6648 126.297 35.0954 126.297 35.8205C126.297 36.7821 126.139 36.9715 121.251 41.8922C118.476 44.6858 116.205 47.1024 116.205 47.2625C116.205 47.4224 118.365 49.7149 121.005 52.3564L125.805 57.16V61.8015C125.805 64.5298 125.91 66.6399 126.06 66.9205C126.301 67.3718 126.634 67.3969 132.293 67.3969H138.272L138.85 68.0136C139.247 68.436 139.691 68.6299 140.263 68.6299C141.38 68.6299 141.921 68.3049 142.29 67.4114C143.239 65.1166 140.451 63.3749 138.723 65.1827L138.011 65.9272L132.708 65.8606L127.405 65.7946L127.338 61.1096L127.273 56.4251L122.664 51.8019L118.056 47.1786L122.728 42.4938C127.269 37.94 127.428 37.809 128.405 37.809C129.695 37.809 130.58 36.9564 130.58 35.7132C130.58 33.8159 128.25 32.8718 126.901 34.2227ZM67.6803 35.7172C66.9553 36.1119 66.4514 37.2567 66.6567 38.0435C66.7519 38.4077 66.5486 38.8084 65.9615 39.414C65.2697 40.127 64.9553 40.2698 64.074 40.272C62.0245 40.2772 61.0139 42.4601 62.413 43.8611C63.813 45.2638 66.0471 44.3261 66.037 42.3402C66.0332 41.5764 66.2077 41.2026 66.9038 40.4801C67.6553 39.701 67.8894 39.5942 68.5961 39.7091C69.2774 39.8198 69.5423 39.7158 70.1659 39.0912C71.1644 38.0909 71.175 37.0447 70.1961 36.0641C69.4077 35.2744 68.6788 35.1738 67.6803 35.7172ZM87.2486 35.588C86.4952 35.8925 85.9303 36.8056 85.9303 37.7188C85.9303 38.6008 87.075 39.7816 87.9303 39.7816C88.599 39.7816 89.7779 39.1405 89.9538 38.6812C90.0721 38.3722 90.5971 38.3022 92.7957 38.3022C95.487 38.3022 95.4933 38.3037 96.2606 39.0722C96.9207 39.7338 97.1538 39.8223 97.9096 39.6992C99.0096 39.5205 99.6144 38.9866 99.8062 38.0255C100.245 35.8276 97.425 34.4757 96.051 36.2254C95.6053 36.7932 95.4471 36.8228 92.8606 36.8228C90.8808 36.8228 90.0851 36.7348 89.9423 36.4998C89.651 36.0215 88.5832 35.3412 88.1519 35.3589C87.9452 35.3676 87.5389 35.4706 87.2486 35.588ZM131.303 39.6862C130.418 40.1214 129.862 41.2112 130.116 42.013C130.26 42.4655 129.913 42.9315 128.021 44.8355C126.091 46.7762 125.791 47.1848 126.004 47.5788C126.336 48.1903 131.086 52.8497 131.378 52.8497C131.503 52.8497 132.208 52.2392 132.943 51.4937C134.154 50.2651 134.38 50.1373 135.345 50.1373C136.737 50.1373 137.62 49.3239 137.62 48.0416C137.62 46.8075 136.731 45.9458 135.459 45.9458C134.159 45.9458 133.312 46.8351 133.346 48.1612C133.367 48.9593 133.216 49.2655 132.413 50.0501L131.456 50.9865L129.558 49.0852L127.66 47.1833L129.372 45.4549C130.936 43.8764 131.171 43.7267 132.09 43.7267C133.22 43.7267 134.071 43.1122 134.32 42.1171C134.775 40.3011 132.985 38.859 131.303 39.6862ZM81.7269 40.9955C80.5986 42.1257 80.8995 43.6317 82.3952 44.3428C83.1543 44.7036 83.2923 44.7031 84.0654 44.3357C84.5284 44.1152 84.9683 43.7772 85.0418 43.5844C85.1471 43.3093 85.776 43.2345 87.9534 43.2377C90.55 43.2417 90.7654 43.2799 91.2817 43.8251C91.9779 44.5613 92.8154 44.7257 93.7856 44.3169C94.7288 43.9198 95.1495 43.0454 94.9385 41.9203C94.6192 40.2156 92.6062 39.7133 91.3072 41.0144C90.5769 41.746 90.5394 41.7541 87.8803 41.7541C86.3245 41.7541 85.1918 41.6543 85.1918 41.5172C85.1918 41.3868 84.9495 41.0539 84.6529 40.7775C83.8447 40.023 82.6058 40.1152 81.7269 40.9955ZM17.1341 42.7786C16.8634 42.9268 16.5036 43.2222 16.3342 43.4345C15.9692 43.8929 15.929 45.3027 16.2633 45.9283C16.5712 46.5047 17.8482 47.0282 18.5185 46.8526C19.5636 46.5787 19.7186 47.1268 19.7186 51.095C19.7186 54.7177 19.7051 54.8131 19.1033 55.4164C17.765 56.7569 18.6917 59.014 20.5801 59.014C22.5704 59.014 23.3765 56.7887 21.9339 55.2765L21.1955 54.5026V50.6321C21.1955 47.075 21.1556 46.7259 20.7032 46.3156C20.3704 46.0138 20.2109 45.5562 20.2109 44.9023C20.2109 43.186 18.5204 42.019 17.1341 42.7786ZM67.9221 45.2337C67.1471 45.5242 66.4769 46.8026 66.6442 47.6717C66.7351 48.1432 66.5558 48.4892 65.8817 49.1416C65.1471 49.8533 64.8457 49.984 64.0687 49.9276C63.3317 49.8745 62.9981 49.9989 62.4731 50.5255C61.3173 51.6832 61.7014 53.4254 63.2548 54.0701C63.863 54.3223 64.1264 54.3035 64.8558 53.9568C65.7841 53.5156 66.0837 52.9485 66.0385 51.718C65.9971 50.58 67.4216 49.2612 68.5841 49.3615C69.6966 49.4579 70.9159 48.3339 70.9159 47.2114C70.9159 45.749 69.3346 44.7046 67.9221 45.2337ZM23.884 50.6118C23.4883 51.0082 23.1646 51.5685 23.1646 51.8568C23.1646 52.5589 23.7935 53.7412 24.2631 53.9216C24.572 54.0402 24.6414 54.5701 24.6414 56.8133C24.6414 59.4253 24.6124 59.582 24.045 60.029C22.848 60.9727 23.0233 62.8648 24.3724 63.5635C25.4463 64.1199 26.0656 64.036 26.8756 63.2245C27.8501 62.2485 27.8435 61.1974 26.8567 60.2089C26.1261 59.4769 26.1183 59.4403 26.1183 56.7679C26.1183 54.5658 26.1882 54.0402 26.4966 53.9216C26.9662 53.7412 27.5951 52.5589 27.5951 51.8568C27.5951 51.0434 26.2964 49.8909 25.3799 49.8909C24.8501 49.8909 24.3751 50.1195 23.884 50.6118ZM43.2139 50.4961C42.3736 51.3375 42.379 52.7932 43.2249 53.5893C43.8088 54.1386 43.8403 54.3073 43.8403 56.8711C43.8403 59.4374 43.8093 59.6028 43.2249 60.1452C42.7967 60.5425 42.6096 60.976 42.6096 61.5706C42.6096 62.7659 42.8105 63.169 43.6119 63.5847C44.6447 64.1194 45.2726 64.0278 46.0745 63.2245C47.0345 62.263 47.0283 61.2707 46.0556 60.1611C45.34 59.3448 45.3172 59.2421 45.3172 56.8427C45.3172 54.4206 45.3331 54.3512 46.0556 53.6274C46.6045 53.0773 46.794 52.6582 46.794 51.9938C46.794 50.1378 44.5209 49.1864 43.2139 50.4961ZM81.7269 50.6118C80.5928 51.7474 80.8808 53.3015 82.3553 54.0064C83.1678 54.3941 83.2774 54.3941 84.0918 54.0055C84.5697 53.7769 85.0245 53.4235 85.1029 53.22C85.2986 52.7089 90.7231 52.6727 91.0255 53.1809C91.7779 54.4457 93.6346 54.5692 94.5423 53.4138C96.2582 51.229 93.2736 48.6609 91.3072 50.6306C90.5822 51.3573 90.5236 51.3703 88.0226 51.3703C85.5212 51.3703 85.463 51.3573 84.7375 50.6306C83.7505 49.6421 82.7014 49.6354 81.7269 50.6118ZM105.268 57.9045C98.8649 64.3326 98.7428 64.4382 97.7486 64.4382C96.4154 64.4382 95.5298 65.2748 95.5298 66.5343C95.5298 67.7682 96.4183 68.6299 97.6909 68.6299C98.987 68.6299 99.8327 67.747 99.7808 66.446C99.7447 65.5429 99.9317 65.3264 105.946 59.3052L112.149 53.0951L116.448 57.4078L120.748 61.7201L119.408 63.0794C118.215 64.2887 117.957 64.4382 117.057 64.4382C114.911 64.4382 114.004 67.0155 115.692 68.314C116.29 68.774 117.797 68.6926 118.448 68.1641C118.892 67.8039 119.027 67.4393 119.044 66.5531C119.064 65.4701 119.163 65.3085 120.876 63.5808C122.496 61.9481 122.651 61.7095 122.343 61.3372C121.194 59.9504 112.385 51.3703 112.111 51.3703C111.927 51.3703 108.848 54.3107 105.268 57.9045ZM137.215 53.0941C136.438 53.408 135.897 54.3203 135.897 55.3127C135.897 56.0953 135.624 56.4589 133.305 58.7719C129.795 62.2717 129.807 62.3214 134.246 62.411C137 62.467 137.667 62.5499 137.783 62.8518C137.861 63.0562 138.252 63.3933 138.652 63.6001C139.587 64.0847 140.662 63.8542 141.309 63.0297C142.036 62.1039 141.945 61.0894 141.054 60.1973C140.406 59.5483 140.181 59.4658 139.393 59.5921C138.837 59.6809 138.286 59.9813 137.979 60.3622C137.516 60.9384 137.324 60.9862 135.456 60.9862C134.345 60.9862 133.435 60.9196 133.435 60.8386C133.435 60.7571 134.277 59.8873 135.307 58.905C136.747 57.5308 137.307 57.1441 137.737 57.226C138.546 57.3813 139.745 56.6715 140.014 55.8773C140.35 54.8874 139.972 53.7769 139.128 53.2774C138.333 52.8072 138.003 52.7754 137.215 53.0941ZM29.6307 54.7722C28.8445 54.8908 28.0874 55.9719 28.0874 56.9758C28.0874 57.6065 28.2801 58.0101 28.8258 58.5207C29.5529 59.2011 29.5642 59.2503 29.5642 61.7258C29.5642 64.2019 29.5529 64.2511 28.8258 64.9315C26.7516 66.8723 29.3899 69.8787 31.6232 68.1187C32.5176 67.4143 32.5339 65.9113 31.6564 65.0322C31.0716 64.4464 31.0411 64.2752 31.0411 61.5918C31.0411 59.9176 31.139 58.7671 31.2815 58.7671C31.7066 58.7671 32.3466 57.5308 32.3244 56.7525C32.2873 55.4405 31.0807 54.5532 29.6307 54.7722ZM87.4736 54.7693C87.1716 54.8165 86.7125 55.1251 86.4534 55.4549C85.9899 56.0451 85.9192 56.0553 82.1043 56.0553H78.2264L75.5457 58.7011C71.8529 62.3464 71.8433 62.3228 77.0649 62.4106L81.1221 62.4786L81.6524 63.1445C82.4168 64.105 84.0154 64.0953 84.8486 63.1247C85.6755 62.1613 85.6192 61.1299 84.688 60.1973C84.0399 59.5483 83.8144 59.4658 83.0269 59.5917C82.4899 59.677 81.8923 59.9938 81.5731 60.3617C81.0543 60.9596 80.9154 60.9862 78.3115 60.9862C76.8163 60.9862 75.5923 60.9452 75.5923 60.895C75.5923 60.8449 76.3264 60.0681 77.224 59.1693L78.8558 57.5346H82.2942H85.7327L86.4226 58.2743C87.8322 59.786 90.1144 58.9045 90.1144 56.849C90.1144 55.4366 88.9692 54.5349 87.4736 54.7693ZM11.4619 57.4001C10.1113 58.7527 11.072 60.9862 13.0042 60.9862C13.8718 60.9862 14.1502 61.1954 16.7083 63.765L19.4739 66.5434L17.4374 68.573C15.5261 70.4776 15.3366 70.6025 14.3523 70.6025C13.636 70.6025 13.2574 70.4825 13.1583 70.2235C12.9237 69.6107 11.6452 69.073 10.8426 69.2495C9.99317 69.4366 9.13461 70.4371 9.13461 71.2405C9.13461 73.3443 11.4249 74.3246 12.8267 72.8216C13.4263 72.1788 13.6879 72.0819 14.8288 72.0819H16.1412L18.6684 69.5591C20.219 68.0107 21.1955 66.8424 21.1955 66.5347C21.1955 66.2218 20.0413 64.8803 18.1187 62.9588C15.2559 60.098 15.042 59.8188 15.042 58.9446C15.042 57.0095 12.8119 56.0476 11.4619 57.4001ZM111.16 59.8048C110.355 60.2667 110.068 60.8049 110.06 61.8628C110.049 63.2534 108.858 64.4348 107.456 64.4464C106.921 64.4502 106.307 64.5891 106.092 64.7545C104.954 65.6302 104.898 67.5203 105.988 68.2364C106.708 68.7085 108.044 68.7374 108.627 68.2938C109.19 67.8651 109.609 66.7079 109.418 66.1061C109.306 65.7531 109.516 65.3606 110.18 64.6793C110.959 63.8808 111.214 63.7588 111.88 63.8668C113.001 64.049 114.236 62.9906 114.236 61.8478C114.236 60.6872 114.03 60.2798 113.234 59.8675C112.406 59.4388 111.827 59.421 111.16 59.8048ZM24.3677 69.4829C23.0531 70.2192 22.8818 72.1224 24.0475 73.041C24.6106 73.4851 24.6311 73.6254 24.6968 77.5335C24.7824 82.6428 24.7888 82.6467 27.9559 79.4874L30.2207 77.2278L31.554 78.6141C32.7027 79.8085 32.892 80.1417 32.923 81.0246C33.0116 83.5407 36.4876 83.993 37.0951 81.568C37.4557 80.1287 36.4798 78.9396 34.8959 78.8885C34.278 78.8683 33.6905 78.4984 32.3099 77.2597C31.3273 76.3782 30.3661 75.6573 30.1739 75.6573C29.9819 75.6573 28.9907 76.4785 27.9714 77.4829L26.1183 79.309V76.4539C26.1183 73.6109 26.1212 73.5964 26.8567 72.8597C27.7615 71.9531 27.8297 70.8971 27.0413 69.9998C26.358 69.2215 25.225 69.0026 24.3677 69.4829ZM139.923 69.3676C139.633 69.4848 139.235 69.8103 139.038 70.0909L138.682 70.6011L101.045 70.6633L63.4082 70.726L63.3442 81.0198L63.2798 91.3141H99.7356H136.191L136.881 92.0538C138.24 93.511 140.672 92.6657 140.672 90.7364C140.672 88.7937 138.358 87.8399 136.984 89.2166L136.37 89.8314L100.566 89.8945L64.762 89.9582V81.0198V72.0819H101.669C137.235 72.0819 138.588 72.0983 138.898 72.5356C140.168 74.3284 142.788 73.5169 142.788 71.3306C142.788 70.5938 142.63 70.2669 142.031 69.7616C141.239 69.0942 140.802 69.0122 139.923 69.3676ZM10.0977 74.3704C9.88312 74.5358 9.57841 74.9133 9.42086 75.2094C8.27019 77.3739 11.0488 79.336 12.8361 77.6203C13.459 77.0229 13.5993 76.9983 16.0061 77.0658L18.5244 77.1367L16.9946 78.6778C15.7151 79.9667 15.3277 80.2189 14.6262 80.2189C14.0205 80.2189 13.6289 80.0337 13.2161 79.553C11.9736 78.1059 9.62687 79.0602 9.62687 81.0126C9.62687 83.0633 11.8074 83.9139 13.2811 82.4379C13.875 81.8429 14.229 81.6982 15.089 81.6982C16.1186 81.6982 16.2532 81.6028 18.7013 79.1421C22.1487 75.6766 22.149 75.6766 17.3284 75.5889L13.5902 75.5209L12.8582 74.7879C12.0671 73.9952 10.829 73.8081 10.0977 74.3704ZM38.6499 74.3704C36.9733 75.6602 37.7299 78.2462 39.7839 78.2462C40.4259 78.2462 40.9418 78.4695 41.6371 79.0476C42.5045 79.7685 42.6012 79.9638 42.6052 81.0019C42.6089 81.9514 42.7243 82.2455 43.2582 82.6665C45.1508 84.1579 47.6631 82.0594 46.5282 79.9349C46.206 79.3321 44.8342 78.7183 44.1869 78.888C43.5592 79.052 41.7387 77.2211 41.9588 76.6473C42.171 76.0932 41.5261 74.6438 40.9236 74.3207C40.2691 73.9697 39.1388 73.9947 38.6499 74.3704ZM67.3111 74.6389C65.926 75.8324 66.8067 78.2462 68.6466 78.2988C69.4337 78.321 70.6697 77.6825 70.6697 77.2544C70.6697 77.0986 82.6942 77.0133 104.649 77.0133H138.628L139.178 77.6541C139.591 78.1353 139.962 78.2954 140.662 78.2954C141.962 78.2954 142.788 77.4882 142.788 76.2191C142.788 74.1635 140.506 73.2825 139.096 74.7942L138.407 75.5339H104.765H71.124L70.3856 74.7942C69.4514 73.8588 68.2851 73.7999 67.3111 74.6389ZM139.441 79.0915C139.021 79.2743 138.609 79.6031 138.525 79.8215C138.387 80.1837 135.529 80.2189 105.831 80.2189H73.2894L70.8596 82.6226C68.0841 85.3692 67.7981 85.7646 68.2211 86.2752C68.4736 86.5799 73.3385 86.6296 103.075 86.6296C133.937 86.6296 137.65 86.6696 137.78 87.0081C137.86 87.2169 138.252 87.5569 138.652 87.7637C140.852 88.9036 142.839 86.1489 141.085 84.3913C140.11 83.4153 139.061 83.4216 138.074 84.4101L137.336 85.1498H103.948H70.5596L72.2692 83.424L73.9793 81.6982H106.026H138.074L138.812 82.4379C139.8 83.4264 140.849 83.4327 141.823 82.4567C143.003 81.2744 142.707 79.7285 141.177 79.0881C140.198 78.6787 140.388 78.6783 139.441 79.0915ZM11.9541 89.2074C10.6211 90.5426 11.5633 92.7935 13.4551 92.7935C14.1345 92.7935 14.5197 92.6141 15.042 92.0538L15.7316 91.3141H33.8716H52.0115L52.7014 92.0538C54.6389 94.1315 57.6399 91.4886 55.8832 89.2518C55.1798 88.3554 53.6793 88.3395 52.8019 89.2185L52.1865 89.8347H33.8342H15.4821L14.9979 89.2185C14.3252 88.3616 12.8038 88.3559 11.9541 89.2074ZM13.8112 93.606C12.4708 94.2849 12.2928 95.9798 13.4408 97.1298C14.2843 97.9746 15.3777 97.9196 16.3106 96.9852L17.049 96.2455H32.1487H47.2484L47.9868 96.9852C49.425 98.4259 51.5827 97.5551 51.5827 95.5333C51.5827 94.2955 50.9519 93.578 49.6827 93.3716C48.9072 93.2453 48.6817 93.3301 48.0171 93.996L47.2484 94.7661H32.1487H17.049L16.3106 94.0264C15.5173 93.2318 14.7907 93.1093 13.8112 93.606ZM67.7663 93.5452C66.3351 94.1205 66.3115 96.6279 67.7303 97.3622C68.7716 97.9018 69.3942 97.8073 70.2154 96.9852C70.9452 96.2537 70.9837 96.2455 73.6337 96.2455C75.9957 96.2455 76.3428 96.3 76.5591 96.705C76.8885 97.3222 78.1471 97.8165 78.9038 97.6265C81.0971 97.0748 81.0365 93.9213 78.8216 93.3644C78.1659 93.1995 76.6899 93.8683 76.476 94.4271C76.3769 94.6861 75.7096 94.7661 73.65 94.7661C70.9822 94.7661 70.9457 94.7584 70.2154 94.0264C69.4596 93.2694 68.7827 93.1363 67.7663 93.5452ZM135.614 94.0245L134.878 94.7623L120.807 94.8259C107.221 94.8871 106.733 94.9055 106.646 95.3563C106.58 95.6972 108.936 98.208 115.381 104.666C124.088 113.39 124.205 113.521 124.221 114.527C124.24 115.816 125.152 116.711 126.446 116.711C128.267 116.711 129.201 114.419 127.908 113.124C127.324 112.539 126.968 112.426 125.928 112.499C125.587 112.522 122.938 110.028 117.314 104.389L109.193 96.2455H122.034H134.874L135.612 96.9852C136.433 97.8068 137.056 97.9018 138.094 97.3642C138.885 96.9548 139.098 96.5406 139.093 95.4238C139.088 94.5183 138.95 94.2738 138.118 93.7038C137.226 93.0919 136.446 93.1918 135.614 94.0245ZM69.562 113.012C51.3961 131.211 51.3462 131.258 50.3452 131.258C48.3356 131.258 47.3697 133.589 48.851 134.865C50.3856 136.188 52.5332 135.197 52.4163 133.22L52.3577 132.22L70.3125 114.233L88.2673 96.2455H92.8226H97.3779L108.514 107.404C119.087 117.997 119.651 118.607 119.651 119.452C119.651 121.218 121.31 122.317 122.807 121.542C124.926 120.444 123.749 117.08 121.403 117.528C120.9 117.625 119.159 115.984 109.392 106.204L97.9687 94.7661H92.8716H87.775L69.562 113.012ZM15.4001 98.8233C14.9829 99.2408 14.7958 99.7028 14.7958 100.314C14.7958 102.264 17.1295 103.209 18.4146 101.78L18.9566 101.177H26.0422H33.1281L28.858 105.46C24.7096 109.62 24.5599 109.742 23.6059 109.716C22.818 109.696 22.5066 109.827 22.0326 110.379C20.7662 111.854 21.6555 113.998 23.5338 113.998C24.7773 113.998 25.626 113.11 25.626 111.807C25.626 110.86 25.7978 110.655 30.6915 105.763C34.1601 102.297 35.7302 100.562 35.6724 100.26C35.5937 99.8503 35.0302 99.8161 27.3797 99.7558L19.1714 99.6907L18.4847 98.9544C17.5883 97.9929 16.284 97.9375 15.4001 98.8233ZM43.2582 98.7292C42.742 99.1357 42.6096 99.4511 42.6096 100.272C42.6096 101.294 42.5471 101.366 35.7275 108.194C28.9784 114.952 28.8258 115.085 27.8176 115.111C25.7943 115.161 24.926 117.28 26.3454 118.702C27.0974 119.455 27.9928 119.623 28.8393 119.169C29.4889 118.821 30.1288 117.506 29.9598 116.867C29.8448 116.432 31.0334 115.124 36.7673 109.375C43.4307 102.694 43.7522 102.41 44.6499 102.41C45.9044 102.41 46.794 101.54 46.794 100.314C46.794 98.4968 44.7281 97.571 43.2582 98.7292ZM62.413 98.8233C61.9957 99.2408 61.8086 99.7028 61.8086 100.314C61.8086 102.286 64.0418 103.165 65.5139 101.772C66.1014 101.216 66.3236 101.177 68.8986 101.177C70.5279 101.177 71.6543 101.275 71.6543 101.418C71.6543 101.805 72.837 102.472 73.524 102.472C75.6567 102.472 76.5418 99.8248 74.8149 98.6126C73.9034 97.9737 72.7822 98.1101 71.9836 98.9578C71.2976 99.6854 71.2457 99.6975 68.7817 99.6975C66.3264 99.6975 66.262 99.6825 65.5385 98.9578C64.5788 97.9963 63.2933 97.9413 62.413 98.8233ZM133.514 98.953L132.797 99.6878L127.027 99.7544C121.596 99.8166 121.252 99.8479 121.168 100.286C121.105 100.617 122.137 101.814 124.731 104.417C128.023 107.719 128.376 108.156 128.305 108.834C128.14 110.406 129.599 111.535 131.137 111.027C133.489 110.248 132.759 106.614 130.307 106.9C129.576 106.986 129.279 106.759 126.616 104.085L123.72 101.177H128.32C132.899 101.177 132.924 101.18 133.536 101.793C134.895 103.155 137.225 102.221 137.225 100.314C137.225 98.3242 134.945 97.4876 133.514 98.953ZM43.7173 109.807C33.9684 119.575 33.5962 119.916 32.6924 119.916C30.7632 119.916 29.8037 122.151 31.153 123.502C32.4937 124.846 34.7898 123.895 34.7745 122.003C34.7669 121.043 34.9333 120.858 44.0404 111.718C49.1413 106.598 53.3981 102.41 53.5 102.41C53.6024 102.41 53.6861 104.019 53.6861 105.986V109.563L46.3098 116.965C39.8132 123.485 38.8624 124.35 38.3366 124.217C37.4884 124.004 36.3126 124.69 36.0032 125.58C35.6505 126.594 36.065 127.718 36.9629 128.183C38.0041 128.723 38.6268 128.629 39.4477 127.806C40.0352 127.218 40.1709 126.89 40.1115 126.203C40.0399 125.369 40.3065 125.068 47.6001 117.748L55.1625 110.158L55.1591 105.483C55.1558 100.191 55.0851 99.6975 54.3332 99.6975C53.9678 99.6975 50.7144 102.796 43.7173 109.807ZM89.9255 102.229L87.4072 104.76V109.569V114.377L84.9457 116.834L82.4841 119.29V127.721V136.151L81.7457 136.891C80.6082 138.031 80.8875 139.541 82.3654 140.244C83.4029 140.736 84.5678 140.366 85.076 139.38C85.6082 138.35 85.524 137.784 84.6995 136.844C84.0639 136.118 83.9611 135.805 83.9611 134.598V133.195L84.6279 133.72C85.0779 134.075 85.5673 134.222 86.1327 134.173C86.8279 134.113 87.1293 134.263 87.9062 135.056C88.7106 135.876 88.8236 136.125 88.7096 136.828C88.5995 137.507 88.7048 137.774 89.3269 138.397C90.2428 139.315 91.2909 139.386 92.2014 138.593C93.7553 137.241 92.9202 134.887 90.8673 134.836C89.4034 134.799 88.1457 133.58 88.1457 132.199C88.1457 130.304 86.1154 129.35 84.6096 130.537L83.9611 131.047V125.557V120.067L86.4226 117.562L88.8837 115.056V110.244V105.431L90.8827 103.396L92.8812 101.361L103.936 112.426C113.145 121.644 114.968 123.581 114.859 124.029C114.696 124.696 115.101 125.811 115.661 126.237C116.16 126.617 117.532 126.671 118.157 126.336C118.4 126.205 118.737 125.764 118.907 125.355C119.541 123.822 118.537 122.382 116.835 122.382C115.843 122.382 115.731 122.279 104.514 111.04C98.2875 104.801 93.0245 99.6975 92.8187 99.6975C92.6125 99.6975 91.3106 100.836 89.9255 102.229ZM20.7221 102.062C20.2621 102.45 19.9648 102.933 19.9648 103.295C19.9648 103.753 19.8333 103.889 19.3923 103.889C18.5302 103.889 17.6511 104.967 17.6511 106.024C17.6511 108.405 21.2341 108.854 21.817 106.546C21.9056 106.195 22.3174 105.832 22.9174 105.577C23.6554 105.264 23.9271 104.979 24.0957 104.344C24.3894 103.238 24.0192 102.236 23.15 101.786C22.1529 101.269 21.5858 101.334 20.7221 102.062ZM67.4476 103.591C66.7548 104.211 66.6308 104.482 66.6635 105.307C66.6962 106.126 66.5635 106.421 65.8514 107.112C65.1466 107.797 64.8409 107.927 64.0687 107.871C62.2202 107.737 61.1332 109.866 62.2952 111.346C63.6471 113.068 66.613 111.662 66.0639 109.56C65.9635 109.174 66.1755 108.777 66.8582 108.077C67.6163 107.299 67.9144 107.146 68.4611 107.256C69.1779 107.4 70.1091 107.016 70.6 106.376C71.4529 105.264 70.5394 103.289 69.0394 103.001C68.4149 102.881 68.1163 102.992 67.4476 103.591ZM81.7 108.582C81.0909 109.192 80.9769 109.475 81.0793 110.123C81.1933 110.841 81.0394 111.085 79.4447 112.71L77.6846 114.505V125.409V136.313L77.0077 136.98C75.5678 138.398 76.4716 140.726 78.4615 140.726C80.3808 140.726 81.2437 138.265 79.7769 136.975L79.0385 136.326V125.801V115.277L80.6788 113.633C81.9 112.41 82.4452 112.023 82.8101 112.118C83.5711 112.317 84.9187 111.636 85.1933 110.912C85.5909 109.865 85.4803 109.318 84.7183 108.555C83.7409 107.576 82.6952 107.585 81.7 108.582ZM91.6308 108.229C90.2904 109.169 90.474 111.296 91.949 111.913C92.3865 112.097 92.9947 112.181 93.3005 112.101C93.7745 111.976 94.9779 113.078 101.466 119.572C108.394 126.507 109.063 127.249 108.933 127.85C108.769 128.605 109.338 129.888 109.94 130.118C112.142 130.965 114.094 128.902 112.835 127.06C112.249 126.201 112.027 126.088 110.915 126.084C109.955 126.08 109.752 125.901 102.383 118.521C95.1856 111.314 94.8404 110.927 94.9601 110.186C95.0572 109.588 94.9346 109.229 94.4245 108.622C93.6687 107.722 92.5726 107.568 91.6308 108.229ZM91.424 118.042C90.8731 118.517 90.7418 118.829 90.7625 119.618C90.7861 120.507 90.6269 120.774 89.0976 122.416C88.1683 123.414 87.4072 124.36 87.4072 124.519C87.4072 124.876 92.5635 130.025 92.9216 130.025C93.0649 130.025 94.2072 129.003 95.4601 127.753L97.738 125.48L99.6341 127.392L101.53 129.304L99.5817 131.267C97.7534 133.11 97.5687 133.231 96.5812 133.231C94.876 133.231 93.9077 134.648 94.551 136.204C94.9221 137.102 95.4611 137.422 96.599 137.422C97.7745 137.422 98.8361 136.204 98.6524 135.068C98.5361 134.351 98.7115 134.103 100.843 131.976C102.117 130.705 103.16 129.495 103.16 129.286C103.16 128.798 98.2231 123.86 97.7409 123.865C97.5399 123.868 96.4005 124.818 95.2086 125.977C94.0168 127.137 92.9452 128.05 92.8269 128.007C92.7086 127.965 91.8216 127.163 90.8553 126.227L89.0981 124.524L90.4663 123.139C91.687 121.903 91.9437 121.754 92.8466 121.754C94.8524 121.754 95.7389 119.595 94.3178 118.171C93.4173 117.269 92.3755 117.222 91.424 118.042ZM70.7154 121.473L68.1851 124.016L68.1351 130.037L68.0851 136.057L67.3587 136.709C66.3841 137.583 66.3745 138.989 67.3375 139.819C69.5043 141.686 72.2654 138.636 70.1774 136.683L69.4389 135.992V130.365V124.739L71.087 123.191C71.9933 122.339 72.7687 121.642 72.8101 121.642C72.851 121.642 72.8846 124.962 72.8846 129.02V136.398L72.1461 137.138C70.8937 138.393 71.426 140.376 73.1159 140.748C75.2836 141.224 76.6861 138.32 74.9495 136.951L74.3615 136.488V128.099C74.3615 123.485 74.2942 119.534 74.212 119.32C73.9125 118.538 73.1952 118.979 70.7154 121.473ZM60.9726 131.231C58.4437 133.774 58.2437 133.92 57.4764 133.795C56.8019 133.686 56.5341 133.791 55.9125 134.414C55.0221 135.306 54.9308 136.32 55.6582 137.247C57.0125 138.972 60.0082 137.632 59.4827 135.536C59.3721 135.094 59.713 134.62 61.2178 133.122C62.2481 132.097 63.1346 131.258 63.188 131.258C63.2413 131.258 63.2856 132.157 63.2856 133.255C63.2856 135.156 63.25 135.285 62.5471 135.943C61.0798 137.316 61.9154 139.641 63.876 139.641C65.8986 139.641 66.8024 137.432 65.3861 135.952C64.6971 135.232 64.6822 135.158 64.7221 132.682C64.7663 129.924 64.5524 128.706 64.0062 128.602C63.813 128.565 62.4476 129.748 60.9726 131.231Z" fill="#193040"/>
<path d="M73.424 174.553C13.0653 155.793 14.3919 151.773 5.76923 129.662C45.0356 135.558 69.8865 85.2173 77.4038 59.3096V174.553H73.424Z" fill="white" stroke="white"/>
<path fill-rule="evenodd" clip-rule="evenodd" d="M72.8558 48.4058C70.3125 72.2887 60.8909 92.8928 45.4051 108.435C32.4065 121.48 22.8739 126.402 10.4437 126.485L1.55694 126.544L4.62038 134.593C6.30654 139.019 8.31495 144.248 9.0838 146.212C10.7338 150.424 19.3572 156.653 31.2994 162.259C43.0303 167.765 69.1115 176 74.8226 176C80.5336 176 106.615 167.765 118.346 162.259C130.288 156.653 138.911 150.424 140.562 146.212C141.33 144.248 143.338 139.019 145.025 134.593L148.088 126.544L139.201 126.485C126.771 126.402 117.238 121.48 104.24 108.435C88.7543 92.8928 79.3327 72.2887 76.7894 48.4058C76.299 43.7954 75.4135 40.0219 74.8226 40.0219C74.2317 40.0219 73.3461 43.7954 72.8558 48.4058ZM69.9043 91.2741C58.6418 112.777 35.7227 129.662 16.4409 130.662L7.29601 131.137L14.6504 129.834C34.423 126.334 56.3375 108.229 66.5899 86.9237C69.6212 80.6258 72.563 73.3819 73.1269 70.8267C74.075 66.5381 74.1846 66.7768 74.5553 73.9036C74.9067 80.6659 74.3279 82.8294 69.9043 91.2741ZM74.8226 98.37C74.8226 102.351 73.376 104.589 65.2577 113.162C57.6577 121.189 53.3534 124.427 44.3033 128.929C33.6421 134.231 32.1378 134.608 20.7733 134.819L8.63317 135.045L18.357 133.948C36.8633 131.859 57.5091 118.363 69.6385 100.427C72.1216 96.7537 74.3038 93.7328 74.4885 93.714C74.6726 93.6952 74.8226 95.7903 74.8226 98.37ZM1.24538 109.193C-0.76972 114.513 -0.304386 119.869 2.38731 122.312C4.93462 124.624 14.4445 125.215 19.166 123.354C20.7519 122.729 19.1727 122.366 14.875 122.366C5.58981 122.366 2.22819 119.322 2.84997 111.48C3.37414 104.863 3.05723 104.412 1.24538 109.193ZM146.8 111.543C147.417 119.316 144.029 122.366 134.77 122.366C130.473 122.366 128.893 122.729 130.479 123.354C131.859 123.899 135.754 124.386 139.133 124.438C147.382 124.564 150.357 121.42 149.321 113.668C148.318 106.176 146.236 104.42 146.8 111.543ZM68.5995 122.922C54.674 135.321 34.1315 142.207 17.9933 139.887L9.97034 138.734L22.6734 137.864C29.7911 137.376 38.0226 135.931 41.3936 134.579C49.9207 131.156 64.3524 121.401 69.6519 115.479C74.1207 110.483 74.1582 110.471 74.6168 113.801C74.9764 116.415 73.6486 118.427 68.5995 122.922ZM74.8226 127.868C74.8226 130.647 73.2942 131.977 65.6803 135.824C60.6529 138.363 52.8947 141.39 48.4389 142.547C38.1644 145.218 19.404 145.225 13.9818 142.561C11.7755 141.476 11.016 140.877 12.2943 141.232C28.1811 145.625 50.0572 141.022 66.4841 129.831C70.7029 126.957 74.3038 124.588 74.4885 124.568C74.6726 124.548 74.8226 126.033 74.8226 127.868ZM74.8226 139.132C74.8226 143.975 54.3466 150.332 38.0507 150.548C27.9872 150.682 15.3765 148.259 13.9324 145.915C13.5753 145.335 15.5463 145.509 18.3129 146.301C30.6375 149.826 53.5375 146.808 66.7154 139.92C74.1899 136.012 74.8226 135.95 74.8226 139.132ZM74.8226 149.908C74.8226 153.271 65.6067 155.435 47.3159 156.369C33.1981 157.09 22.2816 155.094 16.6562 150.761C14.3496 148.984 14.8082 149 19.999 150.878C28.6933 154.022 50.0543 153.751 62.1197 150.344C74.325 146.896 74.8226 146.879 74.8226 149.908ZM74.8226 159.313C74.8226 161.447 73.5135 162.063 67.3279 162.838C59.2875 163.847 43.2656 162.8 36.7136 160.84C33.6822 159.932 36.1305 159.588 46.7422 159.425C54.4644 159.307 63.4904 158.726 66.7995 158.136C70.1091 157.546 73.2687 156.987 73.8197 156.894C74.3707 156.802 74.8226 157.891 74.8226 159.313ZM74.8226 169.333V172.55L65.1284 170.112C59.7971 168.772 54.2303 167.396 52.7596 167.052C51.2885 166.709 55.6505 166.358 62.4538 166.272C74.6582 166.119 74.8226 166.159 74.8226 169.333Z" fill="#193040"/>
</g>
<defs>
<clipPath id="clip0_14_2">
<rect width="150" height="176" fill="white"/>
</clipPath>
</defs>
</svg>
