<svg width="400" height="715" viewBox="0 0 400 715" fill="none" xmlns="http://www.w3.org/2000/svg">
<path fill-rule="evenodd" clip-rule="evenodd" d="M156.414 0.596137C152.136 2.99059 151.329 8.06695 154.721 11.2573C156.408 12.8434 157.365 13.0968 160.226 12.7121L163.689 12.2477L185.572 34.3643L207.455 56.4818V86.3418V116.203L195.846 127.927L184.236 139.651L184.227 124.468L184.217 109.284L186.332 108.48C189.368 107.324 191.294 102.418 189.968 99.2147C186.775 91.4963 175.918 93.3806 175.918 101.654C175.918 105.075 177.884 107.953 180.869 108.901C182.544 109.434 182.557 109.865 182.557 163.946V218.454L171.776 229.318L160.995 240.181L160.992 203.625L160.99 167.068L163.444 165.67C168.097 163.02 167.836 156.721 162.976 154.402C160.34 153.143 159.809 153.126 157.831 154.238C152.777 157.079 152.265 163.057 156.854 165.67L159.308 167.068L159.314 222.313L159.319 277.558L182.146 300.421L204.974 323.283L204.974 519.209C204.974 675.127 205.185 715.065 206.007 714.791C206.827 714.517 207.082 673.997 207.243 518.885L207.447 323.322L184.213 300.011L160.979 276.7V259.676V242.651L172.574 231.066L184.169 219.481L184.2 180.815L184.233 142.148L196.673 129.674L209.115 117.2V86.1931V55.1874L186.879 32.8938C169.06 15.0301 164.761 10.2969 165.241 9.07474C166.294 6.39864 166.007 4.78767 164.091 2.64164C161.87 0.154136 158.71 -0.689155 156.414 0.596137ZM308.338 2.9291C306.41 5.06267 306.451 10.0825 308.416 12.2552C309.66 13.6327 310.68 13.8819 313.82 13.5803L317.692 13.2073L337.268 32.8173L356.843 52.4266V89.8205V127.214L346.884 137.159L336.925 147.103V120.496V93.8907L322.906 79.8722C309.333 66.2997 308.913 65.7788 309.713 63.4816C311.452 58.4883 308.104 53.6404 302.948 53.6869C299.692 53.716 297.86 54.7969 296.393 57.5519C293.216 63.5256 299.2 70.2968 305.529 67.8883C307.477 67.1472 308.561 68.0362 321.442 80.9489L335.265 94.8038V121.802V148.799L303.835 180.254C286.55 197.554 272.241 211.386 272.041 210.99C271.841 210.595 271.567 200.033 271.433 187.519L271.19 164.767L283.072 152.851C294.737 141.152 295.009 140.944 297.953 141.415C304.531 142.468 308.384 134.669 303.405 130.381C300.596 127.962 297.979 127.909 295.057 130.21C293.068 131.777 292.835 132.458 293.078 135.993L293.353 140L281.527 151.693L269.7 163.385V209.184V254.982L254.346 239.721L238.993 224.46V183.295V142.129L257.251 123.865L275.51 105.601V63.1476V20.6939L277.601 19.7401C283.594 17.0067 281.277 7.96476 274.584 7.96476C270.678 7.96476 268.04 10.4813 268.04 14.2076C268.04 16.8255 270.835 20.4272 272.866 20.4272C273.612 20.4272 273.85 30.6381 273.85 62.5992V104.771L256.421 122.204L238.993 139.636V121.573C238.993 106.577 239.192 103.51 240.164 103.51C241.783 103.51 245.632 98.7569 245.632 96.7587C245.632 94.0195 243.191 90.1944 240.883 89.3162C236.098 87.4942 230.693 91.1448 230.693 96.1996C230.693 99.5246 231.943 101.593 234.868 103.107L237.333 104.383V164.798V225.212L253.487 241.42L269.64 257.629L269.76 275.811L269.879 293.993L250.701 313.205L231.523 332.417V523.708C231.523 651.566 231.8 715 232.359 715C232.916 715 233.191 677.243 233.183 601.8C233.176 539.54 233.174 465.585 233.177 437.457L233.183 386.314L248.114 371.406L263.046 356.497L263.053 341.54L263.061 326.582L309.537 280.061L356.013 233.541V224.324C356.013 215.28 356.052 215.09 358.105 214.154C360.886 212.885 362.007 209.804 360.874 206.546C358.546 199.86 348.544 201.512 348.544 208.582C348.544 211.514 350.554 214.841 352.326 214.841C353.671 214.841 353.663 214.775 353.54 225.642L353.451 233.535L307.011 280.064L260.571 326.593V341.413V356.232L248.329 368.453C241.597 375.174 235.434 381.168 234.635 381.773C233.26 382.814 233.183 381.554 233.183 358.044V333.218L277.585 288.777L321.986 244.336V226.483V208.629L334.564 196.019C346.263 184.288 347.287 183.464 349.231 184.204C353.736 185.918 359.333 182.323 359.333 177.716C359.333 175.103 357.268 171.148 355.561 170.492C353.834 169.829 349.893 169.829 348.166 170.492C345.838 171.387 344.19 175.672 344.727 179.433L345.216 182.854L332.771 195.257L320.326 207.659V225.587V243.515L296.366 267.492C283.188 280.678 272.217 291.144 271.987 290.749C271.756 290.354 271.522 273.204 271.466 252.637L271.363 215.243L314.924 171.631L358.486 128.02L358.494 89.8404L358.503 51.6614L338.702 31.6824L318.901 11.7035L319.278 8.25222C319.576 5.53043 319.288 4.4329 317.916 3.05954C315.617 0.758149 310.365 0.686696 308.338 2.9291ZM93.515 7.1439C91.0252 9.10382 90.0401 12.6348 91.1605 15.5835C91.9016 17.5367 90.9381 18.6924 76.6707 32.9594L61.3866 48.2433V138.392V228.541L90.4592 257.654L119.532 286.767L119.503 318.725L119.474 350.684L143.131 374.356L166.788 398.028V556.514C166.788 661.333 167.069 715 167.616 715C168.164 715 168.442 657.598 168.44 545.361L168.437 375.722L155.163 362.415L141.89 349.11L141.895 285.091L141.901 221.072L144.355 219.674C151.63 215.532 145.272 204.711 137.829 208.564C133.222 210.95 133.699 218.694 138.548 220.235C140.174 220.751 140.23 221.415 140.23 239.924C140.23 257.967 140.147 259.012 138.795 257.938C138.005 257.311 127.361 246.816 115.141 234.615L92.9241 212.432V193.067V173.702L112.013 154.606L131.101 135.51V112.427V89.3444L133.125 88.5742C139.279 86.2321 137.379 76.0927 130.786 76.0927C127.558 76.0927 125.678 77.3074 124.501 80.153C123.254 83.1656 124.676 86.8519 127.577 88.1289L129.441 88.949V111.815V134.68L111.183 152.944L92.9241 171.208V145.232V119.254L94.9151 118.497C99.1536 116.884 100.652 112.182 98.3494 107.724C96.9551 105.025 95.5924 104.341 91.6112 104.341C88.3861 104.341 85.7842 106.475 84.9493 109.808C84.2164 112.729 86.5278 117.452 89.1853 118.463L91.2642 119.254V166.174V213.093L115.747 237.668L140.23 262.243V306.222V350.201L153.509 363.457L166.788 376.713V385.507C166.788 390.343 166.505 394.3 166.16 394.3C165.815 394.3 155.734 384.486 143.758 372.491L121.983 350.681L121.952 318.665L121.921 286.648L92.4834 257.188L63.0465 227.728V138.417V49.1074L78.0517 34.0694L93.0569 19.0314L96.2272 19.8788C98.8274 20.5734 99.7943 20.4671 101.594 19.2865C104.542 17.3531 105.699 14.5358 105.025 10.9383C104.085 5.92258 97.7269 3.82723 93.515 7.1439ZM102.053 8.79559C104.442 11.1867 104.202 14.9371 101.526 17.0432C98.8548 19.1469 96.9659 19.2217 94.711 17.3116C91.856 14.893 91.5962 11.711 94.052 9.25254C96.5924 6.70937 99.7877 6.52742 102.053 8.79559ZM306.572 56.6264C309.671 59.7287 308.816 64.6597 304.922 66.1419C299.315 68.2763 294.541 61.1951 298.748 56.9836C300.732 54.9971 304.76 54.8127 306.572 56.6264ZM240.054 90.9778C241.154 91.3966 242.54 92.9153 243.136 94.3543C244.097 96.6781 244.033 97.2174 242.561 99.2014C238.207 105.065 229.799 99.8694 233.237 93.4388C233.95 92.1061 235.379 91.1349 237.901 90.2691C237.986 90.2409 238.954 90.5591 240.054 90.9778ZM186.419 97.2531C191.798 101.026 186.483 109.792 180.672 106.729C178.24 105.447 177.606 104.4 177.59 101.641C177.565 97.0794 182.601 94.5762 186.419 97.2531ZM96.2439 107.664C99.6864 111.11 97.102 116.803 92.0942 116.803C89.4185 116.803 86.2846 114.309 86.2846 112.179C86.2846 110.58 87.8715 107.464 89.1064 106.638C90.8493 105.473 94.5931 106.012 96.2439 107.664ZM214.031 164.927C210.199 168.763 210.968 173.73 215.779 176.22L218.244 177.496V221.279V265.061L212.526 259.382C207.059 253.951 206.828 253.56 207.239 250.489C207.781 246.438 205.951 243.438 202.47 242.673C197.191 241.512 193.21 246.644 195.372 251.823C196.667 254.925 199.259 256.071 203.197 255.283C205.235 254.875 206.287 255.594 211.88 261.227L218.244 267.635V491.318C218.244 639.886 218.523 715 219.074 715C219.626 715 219.904 624.847 219.904 446.201C219.904 190.951 219.977 177.376 221.357 176.889C226.796 174.966 228.409 168.305 224.348 164.536C221.222 161.636 217.164 161.79 214.031 164.927ZM222.963 165.967C224.019 166.96 224.884 168.66 224.884 169.744C224.884 172.179 221.414 175.792 219.074 175.792C216.903 175.792 213.265 172.244 213.265 170.126C213.265 169.253 214.039 167.554 214.985 166.35C217.111 163.644 220.329 163.489 222.963 165.967ZM356.3 174.337C359.732 178.958 354.647 184.753 349.498 182.088C345.577 180.058 344.868 176.132 347.912 173.294C350.44 170.936 354.114 171.392 356.3 174.337ZM1.7757 208.455C-0.135637 210.493 -0.563889 213.95 0.783925 216.47C1.83379 218.434 5.62493 219.696 8.27076 218.964C10.1547 218.442 14.3343 222.372 53.7097 261.685L97.0738 304.98L97.0688 314.537L97.063 324.095L94.579 325.51C92.4619 326.716 92.0942 327.423 92.0942 330.287C92.0942 334.741 94.2952 336.973 98.6864 336.973C102.557 336.973 104.543 334.797 104.543 330.556C104.543 328.017 103.837 326.961 100.1 323.912C99.1295 323.121 98.8565 320.852 98.8565 313.591V304.284L55.2965 260.601C15.3733 220.566 11.7988 216.756 12.4918 214.98C14.9667 208.635 6.46484 203.459 1.7757 208.455ZM391.286 222.923C387.012 223.934 384.395 228.765 385.931 232.809C386.786 235.059 385.808 236.105 339.871 282.097L292.938 329.086V338.014C292.938 342.925 292.594 346.943 292.172 346.943C291.751 346.943 290.257 347.911 288.853 349.094C283.612 353.508 286.578 361.898 293.379 361.898C296.861 361.898 301.238 358.208 301.238 355.274C301.238 352.523 299.087 349.026 296.735 347.953C294.641 346.998 294.598 346.807 294.598 338.442V329.905L341.285 283.173L387.973 236.442L390.714 237.229C395.844 238.702 400 235.561 400 230.211C400 225.265 395.897 221.833 391.286 222.923ZM396.822 226.186C399.003 228.162 398.821 232.688 396.495 234.318C392.47 237.141 387.551 234.961 387.551 230.356C387.551 228.978 388.169 227.166 388.925 226.331C390.636 224.437 394.808 224.361 396.822 226.186ZM148.075 312.585C145.043 315.86 145.264 320.386 148.594 323.19C149.998 324.373 151.492 325.341 151.913 325.341C152.347 325.341 152.679 330.655 152.679 337.587V349.832L165.961 363.147L179.241 376.46V545.73C179.241 657.512 179.522 715 180.067 715C180.613 715 180.893 657.365 180.893 545.292V375.582L167.616 362.311L154.339 349.039V337.246C154.339 326.235 154.448 325.419 155.978 324.933C158.426 324.155 160.979 320.457 160.979 317.688C160.979 316.094 160.135 314.398 158.553 312.815C155.299 309.557 150.966 309.462 148.075 312.585ZM156.876 313.58C160.613 316.609 158.27 323.68 153.529 323.68C151.066 323.68 147.7 320.438 147.7 318.065C147.7 315.361 150.7 312.048 153.148 312.048C154.158 312.048 155.836 312.738 156.876 313.58ZM321.361 324.507C319.041 325.92 318.666 326.612 318.666 329.483C318.666 332.707 320.332 335.452 322.784 336.27C323.564 336.53 323.77 357.836 323.703 431.296L323.618 525.986L314.088 535.537L304.557 545.086V496.28C304.557 454.553 304.729 447.473 305.742 447.473C307.412 447.473 310.367 443.464 310.367 441.198C310.367 438.156 309.501 436.697 306.896 435.348C299.505 431.521 293.208 442.376 300.433 446.49L302.887 447.889L302.893 497.271L302.898 546.654L295.447 554.26L287.996 561.866L287.976 638.432C287.959 705.982 288.103 715 289.202 715C290.302 715 290.449 705.981 290.449 638.501V562.001L307.151 545.24C316.338 536.021 324.387 527.672 325.039 526.687C326.053 525.156 326.197 511.194 326.035 430.775C325.879 354.118 326.044 336.588 326.923 336.295C331.235 334.856 332.799 327.274 329.248 325.031C325.92 322.93 324.145 322.812 321.361 324.507ZM188.744 348.152C185.593 351.306 186.517 356.633 190.533 358.465L192.516 359.37V537.185C192.516 655.175 192.795 715 193.346 715C193.897 715 194.176 655.175 194.176 537.185V359.37L196.16 358.465C198.284 357.496 199.986 354.553 199.986 351.851C199.986 349.289 196.31 346.112 193.346 346.112C191.73 346.112 190.028 346.866 188.744 348.152ZM297.711 350.886C299.429 353.138 298.994 357.477 296.903 358.943C290.809 363.216 284.363 354.88 290.205 350.279C292.71 348.307 295.942 348.568 297.711 350.886ZM79.0709 355.267C76.22 356.404 74.4274 359.753 75.0797 362.723C75.8457 366.216 78.8393 368.041 82.9101 367.494C86.0929 367.066 86.2672 367.189 94.935 375.995L103.73 384.93L103.704 454.955L103.678 524.98L119.121 540.419C127.615 548.91 134.905 556.496 135.322 557.276C135.765 558.104 136.081 591.24 136.081 636.847C136.081 688.64 136.362 715 136.915 715C137.468 715 137.736 688.339 137.713 635.864L137.678 556.727L129.825 548.631L121.972 540.534V494.835C121.972 457.437 122.172 449.135 123.072 449.135C123.677 449.135 125.059 448.19 126.143 447.035C131.382 441.453 125.524 432.603 118.193 435.025C115.038 436.068 112.647 440.237 113.409 443.368C114.004 445.82 116.864 449.135 118.382 449.135C119.282 449.135 119.482 457.26 119.481 493.792L119.48 538.449L112.444 531.387L105.407 524.325L105.391 454.239L105.373 384.152L96.4513 375.037C87.698 366.095 87.5345 365.857 87.7868 362.439C87.991 359.662 87.6557 358.601 86.127 357.199C83.7002 354.975 81.3889 354.342 79.0709 355.267ZM124.092 385.941C122.164 388.075 122.206 393.095 124.17 395.267C125.415 396.645 126.434 396.894 129.582 396.592L133.461 396.218L141.826 404.62L150.19 413.022V465.161V517.299L148.171 518.219C144.08 520.085 143.467 526.748 147.15 529.329C152.591 533.145 159.566 527.358 157.144 521.039C156.86 520.299 155.553 519.137 154.239 518.457L151.849 517.22V464.676V412.133L143.246 403.55L134.643 394.967L135.044 391.407C135.365 388.551 135.098 387.501 133.688 386.089C131.372 383.77 126.128 383.69 124.092 385.941ZM271.263 396.89C269.853 398.301 269.586 399.352 269.907 402.21C270.307 405.761 270.289 405.79 262.535 413.52L254.761 421.269V465.963V510.658L252.737 511.428C248.656 512.982 247.6 519.025 250.872 522.103C254.633 525.638 260.588 523.703 261.886 518.524C262.507 516.047 260.376 512.289 257.996 511.665C256.287 511.218 256.269 510.42 256.418 443.734L256.466 422.133L264.055 414.497C270.792 407.719 271.905 406.913 273.961 407.325C279.208 408.375 282.467 405.742 282.32 400.573C282.178 395.561 274.984 393.165 271.263 396.89ZM299.833 399.293C296.746 400.538 295.146 403.855 295.695 407.872L296.183 411.43L285.017 422.586L273.85 433.741V574.371C273.85 667.655 274.13 715 274.681 715C275.232 715 275.507 667.811 275.5 574.819L275.489 434.639L286.447 423.646L297.405 412.654L301.022 413.15C305.597 413.777 308.378 412.357 309.552 408.795C310.789 405.043 309.775 401.899 306.73 400.04C303.908 398.317 302.604 398.176 299.833 399.293ZM307.652 403.497C310.492 409.123 303.186 414.529 298.748 410.086C295.744 407.079 297.081 402.078 301.238 400.772C303.444 400.08 306.604 401.423 307.652 403.497ZM123.935 437.564C128.288 440.992 125.976 447.473 120.4 447.473C114.206 447.473 113.472 438.643 119.482 436.431C121.456 435.704 121.629 435.748 123.935 437.564ZM252.698 567.732C249.09 568.626 247.089 573.42 248.637 577.46C248.921 578.201 250.228 579.362 251.542 580.043L253.931 581.279V648.14C253.931 692.16 254.215 715 254.761 715C255.307 715 255.591 692.013 255.591 647.703C255.591 610.689 255.908 580.406 256.294 580.406C256.681 580.406 257.864 579.654 258.923 578.734C263.861 574.446 259.158 566.133 252.698 567.732Z" fill="#082640"/>
</svg>
